<svg width="24" height="25" viewBox="0 0 24 25" fill="none" xmlns="http://www.w3.org/2000/svg">
<path d="M22.125 0.776123H1.875C0.839062 0.776123 0 1.61519 0 2.65112V22.9011C0 23.9371 0.839062 24.7761 1.875 24.7761H22.125C23.1609 24.7761 24 23.9371 24 22.9011V2.65112C24 1.61519 23.1609 0.776123 22.125 0.776123ZM14.6484 10.7417L14.5125 12.5371H12.6703V18.7714H10.3453V12.5371H9.10312V10.7417H10.3453V9.53706C10.3453 9.00737 10.3594 8.18706 10.7437 7.67612C11.1516 7.13706 11.7094 6.77144 12.6703 6.77144C14.2359 6.77144 14.8922 6.99644 14.8922 6.99644L14.5828 8.83393C14.5828 8.83393 14.0672 8.68394 13.5844 8.68394C13.1016 8.68394 12.6703 8.85737 12.6703 9.34019V10.7417H14.6484Z" fill="black"/>
</svg>
