<svg width="126" height="124" viewBox="0 0 126 124" fill="none" xmlns="http://www.w3.org/2000/svg">
<path d="M115.847 95.519C108.984 95.332 103.743 95.971 99.2623 97.86C97.9893 98.397 95.9573 98.412 95.7493 100.007C96.4493 100.74 96.5583 101.836 97.1143 102.738C98.1843 104.468 99.9903 106.79 101.602 108.006C103.364 109.336 105.179 110.757 107.067 111.908C110.425 113.955 114.174 115.125 117.407 117.176C119.313 118.386 121.206 119.909 123.065 121.273C123.985 121.948 124.602 122.997 125.797 123.42V123.226C125.169 122.426 125.007 121.328 124.431 120.493L121.894 117.956C119.414 114.664 116.265 111.772 112.918 109.371C110.249 107.455 104.276 104.867 103.163 101.762L102.968 101.567C104.86 101.353 107.075 100.669 108.822 100.2C111.756 99.414 114.378 99.617 117.407 98.835L121.504 97.664V96.884C119.973 95.313 118.881 93.233 117.212 91.811C112.842 88.091 108.074 84.374 103.164 81.274C100.44 79.556 97.0753 78.439 94.1883 76.982C93.2173 76.491 91.5113 76.236 90.8703 75.42C89.3533 73.488 88.5283 71.038 87.3593 68.787C84.9103 64.07 82.5053 58.919 80.3353 53.956C78.8553 50.572 77.8883 47.236 76.0423 44.2C67.1823 29.633 57.6463 20.842 42.8733 12.2C39.7293 10.362 35.9443 9.637 31.9443 8.687C29.7993 8.558 27.6523 8.427 25.5063 8.296C24.1953 7.75 22.8333 6.147 21.6043 5.369C16.7103 2.277 4.15629 -4.448 0.532285 4.394C-1.75671 9.975 3.95329 15.419 5.99429 18.248C7.42829 20.23 9.26328 22.455 10.2873 24.686C10.9613 26.153 11.0773 27.624 11.6543 29.175C13.0713 32.997 14.3063 37.155 16.1413 40.686C17.0683 42.474 18.0903 44.356 19.2633 45.954C19.9813 46.935 21.2143 47.367 21.4083 48.881C20.2043 50.567 20.1353 53.185 19.4583 55.321C16.4083 64.936 17.5593 76.888 21.9953 84.004C23.3553 86.19 26.5623 90.875 30.9703 89.077C34.8263 87.507 33.9653 82.639 35.0683 78.345C35.3173 77.372 35.1643 76.656 35.6533 76.004V76.199L39.1663 83.223C41.7663 87.41 46.3783 91.785 50.2883 94.737C52.3153 96.268 53.9113 98.914 56.5323 99.81V99.614H56.3373C55.8293 98.823 55.0343 98.495 54.3863 97.859C52.8593 96.362 51.1613 94.501 49.8993 92.786C46.3433 87.959 43.2013 82.676 40.3383 77.177C38.9703 74.55 37.7813 71.654 36.6293 68.981C36.1853 67.951 36.1913 66.392 35.2653 65.859C34.0023 67.817 32.1433 69.401 31.1673 71.713C29.6063 75.409 29.4053 79.917 28.8263 84.591C28.4843 84.713 28.6363 84.629 28.4353 84.785C25.7173 84.13 24.7633 81.333 23.7523 78.932C21.1983 72.862 20.7233 63.09 22.9713 56.103C23.5533 54.294 26.1813 48.602 25.1173 46.931C24.6093 45.265 22.9333 44.301 21.9963 43.028C20.8353 41.454 19.6773 39.382 18.8723 37.564C16.7823 32.833 15.8063 27.52 13.6053 22.736C12.5523 20.449 10.7733 18.134 9.31229 16.102C7.69529 13.849 5.88329 12.19 4.62929 9.467C4.18329 8.499 3.57829 6.949 4.23829 5.954C4.44829 5.283 4.74629 5.003 5.40929 4.784C6.54129 3.911 9.69328 5.074 10.8713 5.563C14.0003 6.863 16.6123 8.101 19.2633 9.857C20.5343 10.701 21.8223 12.332 23.3603 12.784H25.1163C27.8633 13.415 30.9403 12.979 33.5073 13.759C38.0433 15.137 42.1083 17.282 45.7993 19.613C57.0453 26.715 66.2413 36.823 72.5313 48.882C73.5433 50.824 73.9813 52.676 74.8723 54.736C76.6703 58.889 78.9353 63.162 80.7243 67.224C82.5103 71.276 84.2503 75.365 86.7743 78.737C88.1013 80.509 93.2253 81.46 95.5553 82.445C97.1873 83.134 99.8623 83.854 101.409 84.785C104.362 86.567 107.224 88.688 109.995 90.64C111.378 91.615 115.635 93.756 115.847 95.519ZM28.6283 21.178C27.1973 21.151 26.1853 21.334 25.1153 21.567V21.762H25.3103C25.9933 23.164 27.1983 24.068 28.0413 25.275C28.6913 26.642 29.3423 28.007 29.9933 29.372L30.1873 29.179C31.3963 28.326 31.9493 26.965 31.9423 24.885C31.4583 24.376 31.3873 23.738 30.9673 23.13C30.4113 22.319 29.3323 21.858 28.6283 21.178Z" fill="#00618A"/>
</svg>
