<svg width="81" height="81" viewBox="0 0 81 81" fill="none" xmlns="http://www.w3.org/2000/svg">
<g clip-path="url(#clip0_169_416)">
<path d="M14.2073 30.2018H76.501V76.2455H14.2073V30.2018Z" fill="white"/>
<path d="M0.976013 40.7705V79.833H79.101V1.70801H0.976013V40.7705ZM63.9323 37.6455C65.8034 38.0797 67.5041 39.0584 68.8198 40.458C69.5441 41.212 70.1737 42.0516 70.6948 42.958C70.6948 43.058 67.3198 45.3393 65.2635 46.6143C65.1885 46.6643 64.8885 46.3393 64.5573 45.8455C64.1819 45.1978 63.6485 44.6557 63.007 44.2699C62.3654 43.8841 61.6366 43.6672 60.8885 43.6393C58.5198 43.4768 56.9948 44.7205 57.0073 46.7643C56.9877 47.2731 57.1042 47.778 57.3448 48.2268C57.8635 49.308 58.8323 49.9518 61.8698 51.2643C67.4635 53.6705 69.8573 55.258 71.3448 57.5143C73.0073 60.0143 73.376 64.0518 72.251 67.0393C71.001 70.2893 67.9385 72.4955 63.6073 73.2268C61.629 73.4533 59.6303 73.4323 57.6573 73.1643C54.6333 72.6658 51.8478 71.2139 49.7073 69.0205C48.9885 68.2268 47.5885 66.158 47.676 66.008C47.9042 65.8386 48.1444 65.6861 48.3948 65.5518L51.2885 63.9518L53.5323 62.6518L54.001 63.3455C54.7921 64.4771 55.7989 65.4414 56.9635 66.183C59.4635 67.4955 62.876 67.3143 64.5635 65.7955C65.1301 65.239 65.4836 64.5014 65.5624 63.7111C65.6412 62.9208 65.4403 62.128 64.9948 61.4705C64.3698 60.6018 63.1198 59.8705 59.626 58.3455C55.5948 56.608 53.8573 55.533 52.2698 53.8205C51.2787 52.6904 50.547 51.3572 50.126 49.9143C49.812 48.2658 49.7655 46.5775 49.9885 44.9143C50.8198 41.0205 53.7385 38.3018 58.001 37.4955C59.975 37.2513 61.9746 37.306 63.9323 37.658V37.6455ZM45.5948 40.9205V44.1205H35.451V73.0143H28.2573V44.1143H18.0885V40.9893C18.0568 39.9116 18.0819 38.833 18.1635 37.758C18.2135 37.7018 24.4135 37.7018 31.9135 37.7018H45.5573L45.5948 40.9205Z" fill="#007ACC"/>
</g>
<defs>
<clipPath id="clip0_169_416">
<rect width="80" height="80" fill="white" transform="translate(0.0385132 0.826752)"/>
</clipPath>
</defs>
</svg>
