<svg width="80" height="81" viewBox="0 0 80 81" fill="none" xmlns="http://www.w3.org/2000/svg">
<path d="M40 0.826752C17.9484 0.826752 0 18.7751 0 40.8268C0 62.8784 17.9484 80.8268 40 80.8268C62.0516 80.8268 80 62.8784 80 40.8268C80 18.7751 62.0522 0.826752 40 0.826752ZM40 7.50634C58.4419 7.50634 73.321 22.3848 73.321 40.8268C73.321 59.2693 58.4419 74.1478 40 74.1478C21.5581 74.1478 6.67897 59.2693 6.67897 40.8268C6.67897 22.3848 21.5581 7.50634 40 7.50634Z" fill="#010101"/>
<path fill-rule="evenodd" clip-rule="evenodd" d="M30.2668 38.8033C39.0261 31.6477 47.5941 24.2432 56.5442 17.2965C51.8499 24.5103 47.0217 31.6283 42.3274 38.8415C38.3012 38.8602 34.2743 38.8602 30.2668 38.8033ZM37.6713 42.7914C41.717 42.7914 45.7432 42.7914 49.7695 42.849C40.9532 49.967 32.4235 57.4285 23.4546 64.3558C28.1489 57.142 32.977 50.0052 37.6713 42.7914Z" fill="#010101"/>
</svg>
