<svg width="42" height="42" viewBox="0 0 42 42" fill="none" xmlns="http://www.w3.org/2000/svg">
<path d="M23.3 1.76727C23.3 1.76727 27.968 2.19127 33.906 8.13127C39.846 14.0713 40.27 18.7373 40.27 18.7373M24.714 8.83927C24.714 8.83927 26.694 9.40327 29.664 12.3733C32.634 15.3433 33.2 17.3233 33.2 17.3233" stroke="#F4F4F9" stroke-width="1.75" stroke-linecap="round"/>
<path d="M27.59 28.8533L28.5 27.8933L26.324 25.8273L25.414 26.7893L27.59 28.8533ZM31.498 27.4893L35.318 29.6913L36.816 27.0893L32.994 24.8893L31.498 27.4893ZM36.056 34.2493L33.216 37.2393L35.39 39.3073L38.23 36.3173L36.056 34.2493ZM31.506 38.1993C28.636 38.4813 21.146 38.2413 13.018 29.6853L10.844 31.7493C19.702 41.0753 28.152 41.5473 31.8 41.1853L31.506 38.1993ZM13.018 29.6853C5.26599 21.5233 3.96599 14.6373 3.80399 11.6173L0.80799 11.7793C1.00799 15.4793 2.57599 23.0453 10.844 31.7493L13.018 29.6853ZM15.77 16.4093L16.342 15.8053L14.168 13.7393L13.594 14.3433L15.77 16.4093ZM16.794 8.28527L14.272 4.72127L11.822 6.45327L14.342 10.0193L16.794 8.28527ZM5.73399 3.94927L2.59799 7.25727L4.77399 9.32327L7.91399 6.01727L5.73399 3.94927ZM14.682 15.3753C14.322 15.0284 13.9587 14.685 13.592 14.3453L13.588 14.3493L13.582 14.3553C13.5469 14.3924 13.5135 14.4311 13.482 14.4713C13.2859 14.7308 13.1308 15.0188 13.022 15.3253C12.826 15.8753 12.722 16.6033 12.854 17.5113C13.114 19.2953 14.284 21.6933 17.338 24.9113L19.514 22.8433C16.658 19.8373 15.954 17.9873 15.822 17.0753C15.758 16.6353 15.822 16.4053 15.848 16.3313L15.864 16.2933C15.8477 16.3196 15.8289 16.3444 15.808 16.3673C15.7962 16.3808 15.7842 16.3942 15.772 16.4073C15.772 16.4073 15.768 16.4073 14.682 15.3753ZM17.338 24.9113C20.384 28.1193 22.684 29.3773 24.438 29.6633C25.34 29.8093 26.07 29.6913 26.622 29.4733C26.9278 29.3532 27.2122 29.1843 27.464 28.9733C27.4886 28.9512 27.5126 28.9286 27.536 28.9053L27.564 28.8773C27.5687 28.8733 27.5734 28.8693 27.578 28.8653L27.584 28.8593L27.586 28.8553C27.586 28.8553 27.59 28.8533 26.502 27.8193C25.414 26.7873 25.416 26.7853 25.416 26.7833L25.42 26.7813L25.424 26.7753C25.4274 26.772 25.4307 26.7686 25.434 26.7653L25.454 26.7453C25.4775 26.7226 25.5022 26.7012 25.528 26.6813C25.548 26.6693 25.546 26.6733 25.52 26.6833C25.48 26.6993 25.3 26.7633 24.92 26.7013C24.116 26.5693 22.38 25.8613 19.514 22.8433L17.338 24.9113ZM14.272 4.72127C12.244 1.85327 8.18799 1.36727 5.73599 3.95127L7.90799 6.01727C8.95399 4.91727 10.798 5.00327 11.822 6.45327L14.272 4.72127ZM3.80399 11.6173C3.75999 10.8173 4.10999 10.0193 4.77399 9.32327L2.59799 7.25727C1.52599 8.38527 0.70999 9.95127 0.80799 11.7793L3.80399 11.6173ZM33.214 37.2413C32.656 37.8293 32.074 38.1433 31.506 38.1993L31.8 41.1853C33.294 41.0393 34.504 40.2413 35.39 39.3073L33.214 37.2413ZM16.342 15.8073C18.278 13.7693 18.414 10.5813 16.794 8.28727L14.344 10.0193C15.188 11.2133 15.058 12.8033 14.168 13.7393L16.342 15.8073ZM35.318 29.6913C36.96 30.6373 37.282 32.9613 36.056 34.2513L38.23 36.3173C40.84 33.5693 40.08 28.9693 36.816 27.0893L35.318 29.6913ZM28.5 27.8953C29.27 27.0833 30.472 26.9013 31.498 27.4913L32.994 24.8913C30.796 23.6273 28.074 23.9913 26.324 25.8313L28.5 27.8953Z" fill="#F4F4F9"/>
</svg>
