<svg width="80" height="81" viewBox="0 0 80 81" fill="none" xmlns="http://www.w3.org/2000/svg">
<g clip-path="url(#clip0_169_412)">
<path d="M80 0.826752H0V80.8268H80V0.826752Z" fill="#F03E2F"/>
<path d="M24.6393 21.5536C24.6393 28.4276 28.9601 32.5177 37.6104 34.6744L46.7768 36.7624C54.9636 38.6099 59.9491 43.1983 59.9491 50.6739C60.0128 53.9306 58.935 57.1099 56.8966 59.6789C56.8966 52.2205 52.9694 48.1906 43.4969 45.7675L34.4967 43.7568C27.2896 42.1414 21.7267 38.3692 21.7267 30.2492C21.6888 27.1136 22.7134 24.0545 24.6393 21.5536Z" fill="white"/>
<path d="M51.2638 48.8436C55.1735 51.3011 56.8878 54.7382 56.8878 59.6703C53.6516 63.743 47.9664 66.0286 41.2841 66.0286C30.036 66.0286 22.1641 60.5897 20.4148 51.1379H31.2167C32.6075 55.4771 36.2897 57.4878 41.2053 57.4878C47.2054 57.4878 51.1939 54.3429 51.2726 48.8264" fill="#F9B1AB"/>
<path d="M30.2546 31.7444C28.4693 30.702 27.0046 29.2043 26.0159 27.41C25.0273 25.6158 24.5516 23.592 24.6394 21.5536C27.7619 17.5151 33.1934 15.049 39.8146 15.049C51.2726 15.049 57.9024 20.9951 59.538 29.3643H49.1471C48.0013 26.0647 45.1325 23.4955 39.9021 23.4955C34.313 23.4955 30.4995 26.6919 30.2809 31.7444" fill="#F9B1AB"/>
</g>
<defs>
<clipPath id="clip0_169_412">
<rect width="80" height="80" fill="white" transform="translate(0 0.826752)"/>
</clipPath>
</defs>
</svg>
