<svg width="128" height="78" viewBox="0 0 128 78" fill="none" xmlns="http://www.w3.org/2000/svg">
<path d="M64 0.826752C46.933 0.826752 36.27 9.35675 32 26.4238C38.398 17.8928 45.867 14.6938 54.398 16.8268C59.269 18.0408 62.75 21.5728 66.605 25.4868C72.879 31.8538 80.141 39.2248 96 39.2248C113.066 39.2248 123.73 30.6938 128 13.6228C121.601 22.1588 114.133 25.3578 105.601 23.2248C100.731 22.0098 97.254 18.4788 93.394 14.5648C87.124 8.19775 79.864 0.826752 64 0.826752ZM32 39.2248C14.934 39.2248 4.27 47.7558 0 64.8268C6.398 56.2908 13.866 53.0918 22.398 55.2248C27.269 56.4398 30.75 59.9708 34.605 63.8848C40.879 70.2518 48.141 77.6228 64 77.6228C81.066 77.6228 91.73 69.0928 96 52.0258C89.601 60.5568 82.133 63.7558 73.601 61.6228C68.731 60.4088 65.254 56.8768 61.394 52.9628C55.124 46.5958 47.864 39.2248 32 39.2248Z" fill="#38BDF8"/>
</svg>
