<svg width="81" height="81" viewBox="0 0 81 81" fill="none" xmlns="http://www.w3.org/2000/svg">
<path fill-rule="evenodd" clip-rule="evenodd" d="M27.0741 76.5974C27.1235 77.2336 27.0923 77.8918 27.261 78.4955C27.3329 78.7505 27.8235 78.8886 28.1241 79.0799L28.5148 79.3305C28.3679 79.4161 28.2216 79.5736 28.0729 79.5755C26.9067 79.5956 25.7403 79.596 24.5741 79.5768C24.4191 79.5743 24.2673 79.4286 24.1148 79.3493C24.2385 79.2599 24.3573 79.1049 24.4879 79.0943C25.2698 79.0286 25.5079 78.5536 25.5041 77.8511C25.4973 76.5599 25.5004 75.2674 25.506 73.9749C25.5091 73.2549 25.3048 72.7293 24.4566 72.6968C24.3391 72.6918 24.2279 72.5118 24.1141 72.4136C24.2279 72.3443 24.3429 72.213 24.4554 72.2149C25.9491 72.233 27.4491 72.1999 28.9348 72.3255C30.1054 72.4249 30.8766 73.2349 30.956 74.1686C31.0423 75.193 30.5166 75.8961 29.3279 76.3474L28.8723 76.5174C29.6379 77.2411 30.316 77.9486 31.0698 78.5624C31.4041 78.8355 31.8779 78.998 32.3129 79.073C33.1835 79.2218 33.656 78.8474 33.6798 77.9843C33.7179 76.5911 33.6998 75.1961 33.6866 73.8024C33.6804 73.1636 33.406 72.7418 32.6935 72.7068C32.5591 72.7005 32.431 72.5486 32.3004 72.4643C32.4498 72.3768 32.5991 72.2143 32.7473 72.2149C34.2673 72.2274 35.7941 72.1805 37.3041 72.3155C39.881 72.5443 41.3166 74.6886 40.5629 77.058C40.1035 78.503 39.0035 79.3199 37.5885 79.4161C35.1148 79.5849 32.6273 79.5505 30.1454 79.568C29.9479 79.5693 29.7041 79.3549 29.5554 79.1786C28.9841 78.5005 28.4454 77.7955 27.8879 77.1061C27.7191 76.8974 27.531 76.7055 27.3516 76.5055L27.0741 76.5974ZM35.2735 72.9293C35.2735 74.6699 35.2523 76.3568 35.296 78.0418C35.3029 78.3005 35.5523 78.6911 35.7835 78.7836C36.6941 79.1468 38.166 78.5536 38.5773 77.6324C39.1279 76.3993 39.1948 75.1011 38.4504 73.9311C37.716 72.7768 36.4929 72.8918 35.2735 72.9293ZM27.1354 75.7799C27.9241 75.7999 28.7935 75.9755 29.1304 75.1093C29.3191 74.6236 29.2766 73.8705 29.016 73.428C28.6204 72.7555 27.8248 72.873 27.1348 72.958L27.1354 75.7799Z" fill="#337BA2"/>
<path fill-rule="evenodd" clip-rule="evenodd" d="M60.5198 75.4205C61.041 75.308 61.5579 75.3243 61.8935 75.0849C62.1754 74.8849 62.2454 74.3874 62.461 73.9061C62.5854 74.1292 62.7023 74.243 62.7048 74.3586C62.7204 75.2211 62.7235 76.0842 62.7048 76.9467C62.7016 77.0817 62.5635 77.2136 62.4879 77.3474C62.4029 77.2761 62.276 77.2224 62.2385 77.1311C61.7804 76.0242 61.7829 76.0236 60.4616 76.1417C60.6548 77.0055 59.9848 78.1099 61.0179 78.678C61.5448 78.9674 62.3948 78.9099 63.011 78.7205C63.5366 78.5605 63.936 77.9886 64.3935 77.5967V79.5317C64.1404 79.5542 63.9485 79.5855 63.7554 79.5855C61.1673 79.5892 58.5791 79.578 55.9916 79.5974C55.5454 79.6011 55.2435 79.4886 54.971 79.1142C54.4354 78.3755 53.8466 77.6755 53.2679 76.9693C53.1229 76.7924 52.9341 76.6517 52.6298 76.368C52.6298 77.0892 52.6035 77.6061 52.6373 78.1192C52.6723 78.6555 52.9304 79.0111 53.5235 79.078C53.6979 79.098 53.8541 79.2811 54.0185 79.3905C53.8491 79.4561 53.681 79.5767 53.511 79.5799C52.3691 79.5961 51.2279 79.5955 50.086 79.5805C49.911 79.578 49.7373 79.4724 49.5448 79.4086L49.6423 79.2192C51.0448 78.653 51.0485 78.653 51.0473 77.0267C51.0463 76.0121 51.0382 74.9975 51.0229 73.983C51.0123 73.2824 50.8223 72.7267 49.9673 72.6967C49.8441 72.6924 49.7273 72.5174 49.6066 72.4211C49.7479 72.3505 49.8898 72.218 50.0304 72.2192C51.4748 72.233 52.9273 72.1855 54.3616 72.3192C55.9316 72.4655 56.9023 73.7749 56.3191 74.9799C56.0004 75.638 55.2641 76.0942 54.616 76.7411C55.231 77.3036 55.9391 78.1124 56.7979 78.7005C58.011 79.5317 58.8404 79.0574 58.871 77.608C58.8966 76.3911 58.8666 75.173 58.8616 73.9549C58.8591 73.233 58.636 72.7086 57.7885 72.6967C57.6729 72.6949 57.5591 72.5718 57.4223 72.4905C57.8629 72.1655 62.1091 72.0474 63.9523 72.283L64.071 74.2917L63.8629 74.3767C63.4341 73.9286 63.4873 73.0024 62.6004 72.9992C61.9229 72.9961 61.2454 72.9249 60.5179 72.8811C60.5198 73.7286 60.5198 74.4999 60.5198 75.4205ZM52.6154 75.7742C54.2466 75.8399 54.8941 75.3974 54.8554 74.2967C54.8173 73.2355 54.1085 72.8074 52.6154 72.9711V75.7742Z" fill="#515151"/>
<path fill-rule="evenodd" clip-rule="evenodd" d="M7.26038 76.253C7.88288 74.4111 8.49725 72.5674 9.13725 70.7318C9.22538 70.4793 9.441 70.2711 9.59788 70.0418C9.75288 70.278 9.96475 70.4949 10.0535 70.7543C10.6354 72.4536 11.1891 74.1611 11.7548 75.8661C11.7998 76.003 11.8579 76.1349 11.9891 76.4718C12.5691 74.7136 13.106 73.1543 13.5916 71.5786C13.7604 71.033 13.541 70.6386 12.906 70.5674C12.6966 70.543 12.4935 70.4611 12.2491 70.3961C12.6716 69.928 15.9723 69.8936 16.516 70.3286C16.3685 70.3986 16.251 70.498 16.1298 70.503C15.0985 70.543 14.621 71.1886 14.3273 72.0786C13.541 74.4599 12.7398 76.8355 11.9416 79.213C11.8585 79.4599 11.7541 79.6993 11.6591 79.9418L11.396 79.9605L9.15913 73.1974L6.89725 79.9399L6.676 79.9536C6.56038 79.703 6.4185 79.4599 6.33413 79.1993C5.60475 76.9611 4.88475 74.7199 4.16288 72.4799C3.8535 71.518 3.54413 70.5618 2.28038 70.5005C2.19788 70.4968 2.12225 70.3574 2.04288 70.2818C2.14163 70.2005 2.24038 70.0486 2.34038 70.0474C3.76038 70.0324 5.18163 70.0324 6.60163 70.048C6.70038 70.0486 6.79725 70.2024 6.89538 70.2849C6.78975 70.3636 6.696 70.478 6.57788 70.5143C5.44038 70.858 5.3585 70.9899 5.71663 72.093C6.1685 73.4886 6.63413 74.8786 7.09413 76.2718L7.26038 76.253Z" fill="#3179A1"/>
<path fill-rule="evenodd" clip-rule="evenodd" d="M40.966 70.358C41.1404 70.2074 41.2379 70.0493 41.3329 70.0511C43.181 70.0786 45.0441 69.993 46.8729 70.2055C48.6029 70.4061 49.561 72.0299 49.0391 73.5549C48.5716 74.923 47.4185 75.3511 46.1141 75.4699C45.5635 75.5205 45.0041 75.478 44.3491 75.478C44.4073 76.3861 44.4366 77.2155 44.521 78.0393C44.5916 78.7355 45.0604 79.0143 45.7229 79.0705C45.8723 79.0836 46.0085 79.2505 46.1504 79.3468C45.9941 79.4255 45.8391 79.5718 45.6816 79.5736C44.3123 79.5918 42.9416 79.5911 41.5723 79.5749C41.4079 79.573 41.2454 79.438 41.0823 79.3649C41.2185 79.2618 41.3523 79.0755 41.4923 79.0699C42.4066 79.0349 42.7498 78.4674 42.761 77.673C42.7885 75.7474 42.786 73.8218 42.7623 71.8961C42.7523 71.0774 42.3566 70.5536 41.4673 70.5174C41.3348 70.5124 41.2035 70.4361 40.966 70.358ZM44.4179 74.5493C46.0941 74.723 46.7323 74.563 47.136 73.8199C47.541 73.0749 47.5423 72.2955 47.0635 71.5911C46.4016 70.6168 45.3891 70.9049 44.4179 70.8699V74.5493Z" fill="#4D4D4D"/>
<path fill-rule="evenodd" clip-rule="evenodd" d="M19.461 79.8661C17.9635 79.8011 16.7435 79.3311 15.8398 78.2118C14.5566 76.623 14.7516 74.4655 16.2841 73.0918C17.9373 71.6105 20.6704 71.5468 22.3673 72.9849C23.516 73.9593 24.0604 75.193 23.6866 76.7055C23.2648 78.4118 22.061 79.3255 20.4254 79.7405C20.0841 79.8261 19.7241 79.8336 19.461 79.8661ZM22.301 75.9605L22.161 75.8686C22.0679 75.4255 22.0135 74.9693 21.8747 74.5405C21.4735 73.3086 20.6335 72.6999 19.3979 72.6974C18.1666 72.6949 17.3385 73.3068 16.936 74.5518C16.5785 75.6586 16.6248 76.7555 17.1754 77.7893C17.9973 79.3318 20.1935 79.6211 21.2685 78.2493C21.7697 77.6099 21.966 76.7305 22.301 75.9605Z" fill="#3279A1"/>
<path fill-rule="evenodd" clip-rule="evenodd" d="M76.756 72.2749L77.3141 71.7861V74.5211L77.1523 74.643C77.0216 74.4586 76.841 74.2918 76.7679 74.0861C76.3985 73.0518 75.6023 72.4905 74.6935 72.763C74.3816 72.8561 74.0066 73.1686 73.9235 73.4568C73.8554 73.6918 74.1016 74.1568 74.3429 74.3155C74.9729 74.7305 75.6748 75.038 76.3516 75.3799C77.8241 76.1249 78.3504 77.158 77.8523 78.3399C77.3466 79.5405 75.8129 80.1618 74.4385 79.698C74.0598 79.5693 73.7091 79.358 73.3585 79.1911L72.8229 79.8949L72.586 79.8224C72.586 78.8993 72.5804 77.9761 72.5954 77.053C72.5966 76.9636 72.7298 76.8768 72.8016 76.7886C72.9141 76.9249 73.0816 77.0449 73.131 77.2011C73.4579 78.2361 74.0873 78.9236 75.2091 79.0386C75.8485 79.1043 76.4735 79.0255 76.6954 78.2968C76.8979 77.6299 76.4329 77.2536 75.9335 76.9693C75.3841 76.6568 74.8035 76.4011 74.241 76.113C73.9941 75.9861 73.7423 75.8605 73.5204 75.6974C72.7348 75.118 72.4248 74.283 72.6573 73.4361C72.8648 72.6793 73.6091 72.038 74.5304 72.0111C75.2123 71.9918 75.9023 72.1674 76.756 72.2749ZM66.5879 79.1668C66.4841 79.373 66.4266 79.5461 66.3198 79.6799C66.2554 79.7599 66.0973 79.8361 66.0135 79.8099C65.9341 79.7849 65.8498 79.6261 65.8479 79.5249C65.8348 78.713 65.8348 77.9005 65.8485 77.0899C65.8498 76.9905 65.9598 76.8936 66.0198 76.7955C66.1348 76.8686 66.2985 76.9161 66.3554 77.0218C66.461 77.218 66.4854 77.4568 66.5779 77.6618C66.9954 78.588 67.841 79.1674 68.811 79.0268C69.2166 78.9686 69.7173 78.6605 69.9185 78.3155C70.1898 77.8524 69.8648 77.3755 69.4098 77.1124C68.7979 76.7586 68.1641 76.4405 67.5291 76.1305C66.0935 75.4299 65.4879 74.273 66.0023 73.1811C66.5135 72.0955 68.0835 71.6436 69.3954 72.2086C69.5554 72.2774 69.7073 72.3649 69.8329 72.4299L70.5066 71.8761C70.5773 72.0743 70.6223 72.1424 70.6229 72.2105C70.6279 72.9705 70.626 73.7299 70.626 74.4893L70.4279 74.6218C70.296 74.453 70.1129 74.3036 70.041 74.113C69.6829 73.1555 69.116 72.6249 68.2848 72.7261C67.8948 72.773 67.3979 73.0411 67.206 73.3624C66.9248 73.8343 67.331 74.213 67.7591 74.443C68.361 74.7674 68.9773 75.063 69.5879 75.3699C71.0991 76.128 71.631 77.1811 71.1091 78.3849C70.601 79.5574 69.0179 80.1643 67.661 79.683C67.3085 79.5586 66.9816 79.358 66.5879 79.1668Z" fill="#505050"/>
<path fill-rule="evenodd" clip-rule="evenodd" d="M40.8266 1.69862C24.0885 1.39987 10.1029 14.9817 10.0985 31.4517C10.0935 48.3955 23.4348 61.9136 40.1466 61.8886C56.7029 61.8642 70.1041 48.3968 70.1041 31.7843C70.1035 15.4417 56.7635 1.983 40.8266 1.69862ZM40.1091 60.378C24.2804 60.3817 11.5504 47.5474 11.551 31.5861C11.5516 16.0361 24.4791 3.16112 40.0973 3.1555C55.9923 3.1505 68.6566 16.0642 68.6516 32.2724C68.6466 47.5742 55.6473 60.3749 40.1091 60.378ZM55.356 23.2861C54.7348 22.2624 53.971 21.2692 53.6198 20.153C53.2198 18.883 52.8879 17.4374 53.0998 16.1642C53.4598 14.0055 55.1154 12.9336 57.3573 12.7286C45.0923 1.3455 25.8185 5.41987 18.7166 17.788C21.4504 17.6611 24.0604 17.4955 26.6723 17.4605C27.1666 17.4536 27.9848 17.8711 28.101 18.2586C28.361 19.1242 27.6335 19.4261 26.8598 19.4855C26.0466 19.5492 25.2323 19.6099 24.2879 19.6817L33.6223 47.4905C33.8466 47.1236 33.9391 47.0205 33.9798 46.8999C35.706 41.7405 37.4423 36.5842 39.1248 31.4099C39.2785 30.938 39.2023 30.313 39.0335 29.828C38.1435 27.2586 37.0773 24.7449 36.2966 22.1442C35.7623 20.3636 35.0541 19.2117 32.9498 19.418C32.591 19.453 32.1541 18.6817 31.7523 18.283C32.2379 17.9936 32.7198 17.4605 33.2098 17.453C37.4954 17.3874 41.7817 17.3886 46.0673 17.4567C46.5585 17.4649 47.0404 18.0124 47.5266 18.3092C47.101 18.698 46.7348 19.2805 46.2373 19.4305C45.4398 19.6711 44.5554 19.6255 43.601 19.7105L52.9466 47.513C54.3629 42.8105 55.6804 38.4917 56.9604 34.163C58.1041 30.2992 57.4229 26.6899 55.356 23.2861ZM32.9879 55.9199C32.9304 56.0868 32.9273 56.2717 32.8829 56.5492C38.1691 58.0142 43.3516 57.9086 48.6579 56.1211L40.5529 33.9211C37.9585 41.4611 35.471 48.6899 32.9879 55.9199ZM28.9035 54.9161L16.6923 21.4186C11.1835 32.1792 15.3741 48.5974 28.9035 54.9161ZM62.936 20.2892C62.7673 22.1605 62.8848 24.2436 62.3479 26.1405C61.0835 30.6105 59.5379 35.0036 58.0498 39.4086C56.4323 44.1961 54.7498 48.9624 53.0954 53.738C60.8685 49.1305 65.1398 42.3299 65.8198 33.3911C66.2073 28.3036 64.4523 21.2586 62.936 20.2892Z" fill="#494949"/>
</svg>
