<svg width="101" height="102" viewBox="0 0 101 102" fill="none" xmlns="http://www.w3.org/2000/svg">
<path d="M1.10881 0.826901C0.939282 0.829934 0.77262 0.871109 0.621189 0.947371C0.469758 1.02363 0.337447 1.13302 0.23408 1.26742C0.130713 1.40182 0.0589432 1.55777 0.0240988 1.7237C-0.0107456 1.88963 -0.00777004 2.06128 0.0328049 2.2259L24.4268 100.968C24.4742 101.16 24.5714 101.337 24.7088 101.48C24.8461 101.623 25.0187 101.728 25.2092 101.783C25.3996 101.838 25.6013 101.842 25.7938 101.794C25.9863 101.747 26.1629 101.649 26.3058 101.512L99.6918 30.9219C99.8348 30.7845 99.9391 30.6118 99.9941 30.4213C100.049 30.2308 100.053 30.0291 100.005 29.8366C99.9578 29.6441 99.8603 29.4675 99.7227 29.3247C99.5852 29.1818 99.4124 29.0778 99.2218 29.0229L1.4398 0.870901C1.33226 0.839909 1.22071 0.82508 1.10881 0.826901ZM2.6928 3.5809L96.7168 30.6509L26.1508 98.5279L2.6928 3.5809Z" fill="black"/>
<path d="M50.0268 14.9049C49.8782 14.9017 49.7304 14.9279 49.5919 14.9819C49.4534 15.036 49.327 15.1168 49.2198 15.2199L12.5438 50.5249C12.4011 50.6624 12.2971 50.8351 12.2422 51.0255C12.1874 51.216 12.1836 51.4175 12.2314 51.6099C12.2791 51.8022 12.3766 51.9786 12.5141 52.1214C12.6517 52.2641 12.8243 52.3681 13.0148 52.4229L61.8738 66.5049C62.0641 66.5598 62.2655 66.5636 62.4578 66.516C62.6501 66.4685 62.8264 66.3712 62.9692 66.2339C63.112 66.0966 63.2161 65.9241 63.2711 65.7339C63.3262 65.5436 63.3302 65.3422 63.2828 65.1499L51.0998 15.7629C51.0402 15.5218 50.9028 15.307 50.7088 15.1519C50.5149 14.9968 50.2751 14.91 50.0268 14.9049ZM49.3758 18.2049L60.6238 63.7949L15.5198 50.7949L49.3758 18.2049Z" fill="black"/>
<path d="M31.8038 32.3779C31.6343 32.3809 31.4676 32.4221 31.3162 32.4984C31.1648 32.5746 31.0324 32.684 30.9291 32.8184C30.8257 32.9528 30.7539 33.1088 30.7191 33.2747C30.6843 33.4406 30.6872 33.6123 30.7278 33.7769L36.7818 58.3079C36.8292 58.5006 36.9265 58.6773 37.064 58.8204C37.2015 58.9635 37.3742 59.0678 37.5648 59.1229C37.7555 59.1779 37.9572 59.1818 38.1498 59.134C38.3424 59.0863 38.519 58.9886 38.6618 58.8509L56.8838 41.2879C57.0265 41.1503 57.1305 40.9776 57.1853 40.7871C57.2401 40.5966 57.2437 40.395 57.1959 40.2026C57.148 40.0102 57.0504 39.8338 56.9128 39.6912C56.7751 39.5485 56.6023 39.4446 56.4118 39.3899L32.1348 32.4219C32.0273 32.3909 31.9157 32.3761 31.8038 32.3779ZM33.3868 35.1289L53.9088 41.0189L38.5038 55.8649L33.3868 35.1289Z" fill="black"/>
<path d="M25.7918 7.87389C25.6431 7.87081 25.4953 7.89714 25.3568 7.95137C25.2183 8.0056 25.0919 8.08666 24.9848 8.18989L6.7628 25.7519C6.62008 25.8895 6.5161 26.0622 6.46132 26.2527C6.40653 26.4432 6.40288 26.6448 6.45072 26.8372C6.49856 27.0296 6.59621 27.206 6.73385 27.3486C6.87149 27.4913 7.04426 27.5952 7.2348 27.6499L31.5078 34.6189C31.6982 34.6736 31.8996 34.6773 32.0918 34.6296C32.284 34.5819 32.4603 34.4845 32.603 34.3471C32.7456 34.2097 32.8496 34.0372 32.9045 33.8469C32.9595 33.6566 32.9633 33.4552 32.9158 33.2629L26.8648 8.73289C26.8056 8.4914 26.6684 8.27619 26.4743 8.12069C26.2803 7.96519 26.0404 7.87908 25.7918 7.87389ZM25.1418 11.1739L30.2558 31.9099L9.73881 26.0199L25.1418 11.1739ZM74.3428 21.8579C74.1943 21.8549 74.0466 21.8813 73.9083 21.9356C73.77 21.9898 73.6438 22.0708 73.5368 22.1739L55.3128 39.7349C55.1698 39.8724 55.0656 40.0452 55.0107 40.2359C54.9558 40.4265 54.952 40.6283 54.9999 40.8208C55.0477 41.0134 55.1455 41.1899 55.2833 41.3326C55.4211 41.4754 55.5941 41.5793 55.7848 41.6339L80.0588 48.6019C80.2492 48.6566 80.4506 48.6603 80.6428 48.6126C80.835 48.5649 81.0113 48.4674 81.154 48.3301C81.2966 48.1927 81.4006 48.0202 81.4555 47.8299C81.5105 47.6396 81.5143 47.4382 81.4668 47.2459L75.4168 22.7159C75.3574 22.4744 75.2199 22.2593 75.0257 22.104C74.8315 21.9487 74.5914 21.8628 74.3428 21.8579ZM73.6928 25.1579L78.8068 45.8949L58.2898 40.0049L73.6928 25.1589V25.1579ZM37.8338 56.9289C37.5568 56.9395 37.2934 57.0516 37.0938 57.2439L18.8718 74.8069C18.7291 74.9445 18.6251 75.1172 18.5703 75.3077C18.5155 75.4982 18.5119 75.6998 18.5597 75.8922C18.6076 76.0846 18.7052 76.261 18.8428 76.4036C18.9805 76.5463 19.1533 76.6502 19.3438 76.7049L43.6218 83.6729C43.812 83.7273 44.0131 83.7308 44.2051 83.6831C44.3971 83.6353 44.5731 83.5379 44.7156 83.4007C44.8581 83.2635 44.962 83.0912 45.017 82.9012C45.072 82.7111 45.076 82.51 45.0288 82.3179L38.9738 57.7869C38.9116 57.5345 38.7642 57.3113 38.5565 57.155C38.3488 56.9987 38.0936 56.9188 37.8338 56.9289ZM37.2518 60.2289L42.3698 80.9659L21.8478 75.0759L37.2518 60.2289Z" fill="black"/>
</svg>
