<svg width="80" height="61" viewBox="0 0 80 61" fill="none" xmlns="http://www.w3.org/2000/svg">
<path fill-rule="evenodd" clip-rule="evenodd" d="M0 25.776C0 26.2239 0.131895 26.5196 0.205808 26.807C0.687513 28.6758 1.72292 30.2796 2.9514 31.7425C4.70108 33.8274 6.84391 35.5057 9.03898 37.084C10.9429 38.4526 12.8856 39.7907 14.7971 41.1492C15.1253 41.3824 15.4356 41.6506 15.7918 41.9367C15.4853 42.1024 15.2304 42.2483 14.9654 42.3827C12.4428 43.6622 10.0158 45.0965 7.77865 46.834C6.43038 47.8816 5.12672 48.9947 4.206 50.4494C2.72456 52.7891 2.20017 55.2817 3.3044 57.9432C3.62681 58.7206 4.11871 59.3922 4.81259 59.8885C5.03751 60.0491 5.28984 60.2084 5.55299 60.2708C6.22712 60.4295 6.914 60.5333 7.59641 60.6589L9.52897 60.6576C11.6661 60.4671 13.6114 59.7349 15.3693 58.5218C18.1168 56.6255 19.9678 54.0832 20.7637 50.8202C21.3422 48.4487 21.3658 46.0745 20.684 43.7138C20.6188 43.4951 20.5435 43.2795 20.4584 43.0677C20.3756 42.8555 20.2781 42.6491 20.1634 42.3846L24.5447 39.8653L24.6103 39.9213C24.5306 40.1819 24.4459 40.4419 24.3739 40.7051C23.8533 42.6064 23.5073 44.5409 23.6316 46.5142C23.7641 48.6169 24.351 50.5851 25.582 52.3418C26.5772 53.7627 28.9488 53.8156 30.0065 52.3896C30.3818 51.883 30.7457 51.3535 31.019 50.7884C31.7333 49.3133 32.3947 47.8121 33.0771 46.3211L33.1962 46.0484C33.1472 46.7544 33.0898 47.3744 33.0637 47.995C33.0229 48.9641 33.0796 49.9275 33.411 50.8495C33.6945 51.6384 34.1768 52.2277 35.0804 52.3316C35.6984 52.4023 36.191 52.1194 36.6453 51.7607C37.3491 51.2045 37.9324 50.511 38.3599 49.7224C39.5712 47.498 40.8149 45.287 41.9128 43.0065C43.1005 40.54 44.1391 38.0015 45.242 35.493L45.4243 35.0482C45.6849 36.0721 45.8665 37.0751 46.201 38.0244C46.5897 39.1261 47.0707 40.2017 47.5945 41.2473C47.8424 41.7411 47.8137 42.0616 47.4703 42.4758C46.0328 44.2089 44.6202 45.963 43.2063 47.7153C42.8934 48.102 42.5818 48.4958 42.3212 48.9182C42.1631 49.185 42.0592 49.4804 42.0154 49.7874C41.9715 50.07 42.0388 50.3586 42.2031 50.5928C42.3674 50.8269 42.6159 50.9883 42.8966 51.0432C43.4631 51.1652 44.044 51.2066 44.6221 51.1662C46.5954 51.0209 48.3871 50.3283 49.9712 49.1546C52.0235 47.6343 52.6824 45.5597 52.1854 43.1008C52.0509 42.4337 51.8132 41.7851 51.5819 41.1422C51.4781 40.8522 51.4711 40.649 51.6603 40.3788C53.301 38.0359 54.7028 35.5503 56.0065 33.0073C56.0581 32.9073 56.111 32.8073 56.2015 32.7002C56.6239 34.8985 57.2598 37.0171 58.3991 38.9394C57.818 39.4995 57.2426 40.0073 56.722 40.5668C55.5758 41.7991 54.5818 43.1371 54.0631 44.769C53.8401 45.4724 53.6687 46.1873 53.7681 46.9385C53.9223 48.1052 54.8781 48.8635 56.0256 48.5978C58.4813 48.0294 60.6012 46.8723 62.1502 44.8225C63.1926 43.4424 63.2875 41.9029 62.851 40.2902C62.7313 39.8519 62.5892 39.4205 62.4362 38.9178C63.0422 38.7298 63.6329 38.5042 64.2439 38.3647C67.4164 37.6409 70.5545 37.767 73.6117 38.9127C75.3964 39.5817 76.8383 40.7012 77.6934 42.4624C78.7378 44.6154 78.1605 46.6582 76.1311 48.0192C75.9418 48.146 75.7252 48.246 75.5684 48.4047C75.5182 48.4629 75.4807 48.5309 75.4582 48.6044C75.4357 48.6779 75.4288 48.7553 75.4378 48.8316C75.4512 48.91 75.6583 49.0081 75.7774 49.0068C76.4446 49.0017 76.9855 48.6519 77.5048 48.2925C78.8059 47.3922 79.7553 46.1809 79.9599 44.5861L80 44.4663L79.9509 43.4277C79.9312 43.3678 79.9656 43.3086 79.9611 43.2633C79.6846 40.9408 78.444 39.1395 76.6395 37.7275C74.5496 36.0932 72.0818 35.4203 69.4719 35.3139C67.3552 35.2228 65.2412 35.5482 63.2499 36.2716C62.6784 36.4787 62.1119 36.724 61.5372 36.9553C61.4601 36.8157 61.3773 36.6819 61.3091 36.5437C60.7191 35.3356 60.0041 34.181 59.8461 32.7958C59.734 31.812 59.5963 30.8295 59.8302 29.8565C60.0551 28.9205 60.3482 28.0004 60.6241 27.0771C60.7662 26.6018 60.6662 26.3355 60.2125 26.1214C60.0544 26.0425 59.8857 25.9872 59.7117 25.957C58.5966 25.7951 57.4969 25.8875 56.4168 26.2017C56.0345 26.3132 55.7567 26.5272 55.672 26.9503C55.6236 27.1931 55.5248 27.4257 55.456 27.6652C55.1737 28.6611 54.9736 29.6762 54.5174 30.6249C53.3743 33.0048 52.0694 35.2948 50.7339 37.5682C50.5892 37.8135 50.4369 38.0544 50.2547 38.352C49.7857 37.3707 49.2856 36.4901 49.1339 35.4579C48.9625 34.2906 48.8274 33.1252 49.118 31.9668C49.334 31.1028 49.6163 30.2547 49.8762 29.4022C49.9992 28.9969 49.9425 28.7841 49.5755 28.5707C49.3901 28.463 49.1804 28.3674 48.9714 28.3362C47.8281 28.162 46.6598 28.2576 45.56 28.6153C45.214 28.7274 45.0324 28.9511 44.9266 29.3079C44.6157 30.3605 44.3506 31.4386 43.9142 32.4396C42.1466 36.492 40.3281 40.5235 38.5116 44.5542C38.1324 45.3959 37.6883 46.2083 37.2608 47.0278C37.1525 47.2355 36.9944 47.4183 36.8594 47.6133C36.751 47.4852 36.709 47.3973 36.7096 47.3094C36.7128 46.7914 36.651 46.258 36.7498 45.7572C37.053 44.2425 37.3883 42.7344 37.7552 41.2339C38.0547 39.994 38.4032 38.7655 38.7352 37.5338C38.8467 37.1216 38.8486 36.7361 38.5523 36.3895C38.0547 35.809 37.0148 35.6816 36.398 36.1289L36.1253 36.2831L36.1782 35.8434C36.3082 34.901 36.3343 33.9618 36.0756 33.0335C35.7532 31.8763 34.9274 31.2105 33.727 31.2474C33.1676 31.2646 32.5801 31.3602 32.0621 31.5641C29.8836 32.4179 28.2084 33.93 26.7824 35.7491C26.6502 35.918 26.4864 36.0595 26.3001 36.1658C24.4567 37.1878 22.6076 38.1971 20.7592 39.2102L18.7018 40.3374C18.15 39.8111 17.6485 39.265 17.0795 38.8018C15.3419 37.3847 13.5763 36.0027 11.8266 34.6015C10.2757 33.3597 8.77328 32.0662 7.62381 30.4217C6.76872 29.1983 6.21756 27.8596 6.16468 26.3469C6.09777 24.4195 6.64447 22.6583 7.62572 21.0189C8.88096 18.9213 10.5931 17.2379 12.4753 15.7131C14.4664 14.101 16.6201 12.7324 18.8521 11.4829C21.9749 9.73511 25.1869 8.18805 28.6309 7.16665C32.1621 6.11914 35.7449 5.51955 39.4406 5.93754C40.8933 6.10193 42.304 6.43454 43.5994 7.14499C44.5915 7.6885 45.4052 8.40023 45.7836 9.51274C46.157 10.6074 46.1456 11.7167 45.8869 12.8286C45.3612 15.0804 44.1283 16.9365 42.5767 18.595C40.0319 21.3139 36.9275 23.1649 33.4326 24.3876C31.4231 25.0916 29.3324 25.5376 27.2106 25.7148C25.4717 25.8608 23.7692 25.7066 22.1228 25.1019C21.0325 24.7011 20.0832 24.0881 19.3198 23.1986C19.1835 23.0393 19.0089 22.8667 18.7546 23.0158C18.5055 23.1623 18.4615 23.3994 18.545 23.6396C18.6845 24.0384 18.8133 24.4539 19.0305 24.8107C19.5766 25.7059 20.3731 26.3552 21.2498 26.9121C22.9339 27.9832 24.8161 28.3432 26.7678 28.4267C29.7294 28.5547 32.6189 28.1125 35.4678 27.318C39.5349 26.1838 43.0712 24.1805 45.9073 21.0201C48.2686 18.3886 49.9552 15.4187 50.3165 11.8327C50.493 10.0824 50.305 8.36773 49.4856 6.77097C48.5968 5.04103 47.1835 3.75458 45.4937 2.86826C43.033 1.57798 40.3772 0.826752 37.6361 0.826752H34.8898C31.5702 0.826752 28.3607 1.77806 25.2411 2.91287C22.8797 3.77242 20.5642 4.7868 18.3163 5.9095C13.4208 8.35562 8.86184 11.3051 5.11716 15.3607C3.25151 17.3812 1.67195 19.6107 0.763337 22.2359C0.4891 23.0196 0.252857 23.8162 0.0554343 24.6227M17.7938 47.5694C17.5816 50.4105 16.2939 52.7139 14.1893 54.5796C13.0054 55.6283 11.6476 56.3751 10.0661 56.6376C9.49265 56.7326 8.90581 56.7555 8.34956 56.5178C7.55627 56.1789 7.3785 55.4748 7.36321 54.7248C7.33963 53.5295 7.75826 52.4488 8.33235 51.4204C9.08167 50.0798 10.1802 49.0578 11.3532 48.1033C13.201 46.5989 15.2056 45.3259 17.2586 44.1241L17.4134 44.0604C17.7307 45.2328 17.8817 46.3906 17.7938 47.5694ZM33.8239 35.2215C33.6741 36.1289 33.4868 37.0368 33.2217 37.9161C32.3055 40.9599 31.1286 43.9094 29.8562 46.8194C29.621 47.3578 29.2789 47.8491 28.9813 48.3594C28.9307 48.4379 28.8701 48.5094 28.801 48.5723C28.4327 48.9361 28.0835 48.917 27.8975 48.441C27.6808 47.8879 27.5477 47.296 27.433 46.7104C27.3559 46.3173 27.3744 45.9044 27.3501 45.5017C27.375 42.6382 28.2486 40.036 29.7306 37.6135C30.3417 36.6144 31.0069 35.6624 32.0232 35.0304C32.3393 34.8338 32.6814 34.6824 33.0395 34.5805C33.5811 34.4282 33.9137 34.6786 33.8239 35.2215ZM44.7603 49.1553L48.6911 44.5657C48.8548 46.2701 45.9576 49.6727 44.7603 49.1553ZM57.3146 46.0669C57.0368 46.2262 56.7341 46.3409 56.4493 46.4881C56.1887 46.6231 56.1027 46.4868 56.0951 46.2625C56.0912 46.1072 56.1112 45.9523 56.1543 45.8031C56.6851 43.9311 57.6619 42.333 59.1153 41.0332L59.2172 40.9809C59.9086 42.9148 59.1095 45.0385 57.3146 46.0669Z" fill="#CB6699"/>
</svg>
