<svg width="80" height="81" viewBox="0 0 80 81" fill="none" xmlns="http://www.w3.org/2000/svg">
<path d="M25.1013 15.6823C15.0756 16.5704 6.56 23.3679 3.42063 32.9791C2.5175 35.7485 2.20625 37.7335 2.20625 40.8435C2.20625 43.9535 2.5175 45.9379 3.42063 48.7073C8.23375 63.3979 24.8794 70.3291 38.7119 63.4129L40 62.761L41.3031 63.4129C52.6919 69.1148 66.5388 65.471 73.6175 54.8679C75.4688 52.1135 76.8906 48.5441 77.4975 45.1529C77.72 43.8498 77.7938 42.8129 77.7938 40.8435C77.7938 37.7335 77.4831 35.7485 76.5794 32.9791C71.7663 18.2885 55.1206 11.3579 41.3031 18.2735L40 18.9254L38.7119 18.2735C35.7987 16.8259 32.6383 15.9416 29.3969 15.6673C27.4269 15.5041 27.0269 15.5041 25.1013 15.6823ZM31.44 21.0579C32.8913 21.3391 35.6906 22.4348 37.3931 23.3979C39.7188 24.701 42.3544 27.1448 43.9688 29.4848C44.8425 30.7579 46.0125 33.1573 46.6788 35.0679C47.6269 37.7335 47.6269 43.9535 46.6788 46.6185C45.5238 49.8773 44.0575 52.4098 42.0881 54.4979C39.7481 56.986 37.5713 58.4516 34.3131 59.7254C32.24 60.5398 30.9963 60.8066 28.5525 60.9248C25.5606 61.0729 22.865 60.7179 20.7475 59.8735C20.2144 59.651 19.6663 59.4591 19.5038 59.4291C19.1925 59.3554 16.5269 57.8741 15.6238 57.2666C14.6613 56.6154 12.2919 54.2904 11.3731 53.0904C10.9144 52.4835 10.5294 51.9504 10.5294 51.906C10.5294 51.8616 10.1888 51.2391 9.77375 50.5285C9.04813 49.2698 8.55938 48.2479 8.67813 48.2479C8.7075 48.2479 8.545 47.7741 8.30813 47.1966C7.5825 45.4641 7.36 43.9385 7.36 40.8435C7.36 37.7479 7.5825 36.2223 8.30813 34.4898C8.545 33.9123 8.7075 33.4385 8.67813 33.4385C8.55938 33.4385 9.04813 32.4166 9.77375 31.1579C10.1888 30.4473 10.5294 29.8254 10.5294 29.7804C10.5294 29.736 10.9144 29.2029 11.3731 28.596C12.2919 27.396 14.6613 25.071 15.6238 24.4198C16.5125 23.8123 19.1925 22.331 19.5038 22.2573C19.6663 22.2279 20.2888 22.0054 20.8956 21.7685C22.2431 21.2354 23.1169 21.0285 24.6725 20.8504C26.2719 20.6729 30.0331 20.7916 31.44 21.0579Z" fill="#F02E65"/>
<path d="M28.1081 31.9129C28.0781 31.9873 27.6931 33.4979 27.2787 35.2898C26.8487 37.0816 26.1681 39.9104 25.7831 41.5835C25.0425 44.6491 24.5981 46.6635 24.5981 46.9298C24.5981 47.0035 25.0575 47.0635 25.62 47.0635H26.6419L27.1006 45.0191C27.3675 43.9085 27.96 41.3616 28.4337 39.3623C28.9081 37.3629 29.485 34.9341 29.7075 33.9566C29.9294 32.9791 30.1519 32.091 30.1962 31.9873C30.2406 31.8541 29.9887 31.8098 29.2187 31.8098C28.6412 31.8098 28.1375 31.8541 28.1081 31.9129ZM20.155 38.3254L18.7925 39.8066L19.1925 40.2804C19.4144 40.5466 20.0219 41.2135 20.54 41.7616L21.4881 42.7685H24.1837L22.91 41.391C22.2137 40.651 21.6362 39.9398 21.6362 39.851C21.6362 39.7473 22.1694 39.081 22.8212 38.3704C23.4725 37.6448 24.0056 37.0223 24.0056 36.9485C24.0056 36.8891 23.4431 36.8448 22.7619 36.8448H21.5325L20.155 38.3254ZM30.5219 36.9335C30.5219 36.9779 30.7737 37.2591 31.0844 37.5704C32.24 38.7254 33.0544 39.7029 33.01 39.8954C32.9806 39.9991 32.4175 40.6948 31.7362 41.4204L30.5075 42.7685H31.8844L33.2619 42.7535L34.52 41.3766C35.2169 40.6066 35.7794 39.9248 35.7794 39.836C35.7794 39.7623 35.1869 39.066 34.4462 38.2816L33.1137 36.8448H31.825C31.0994 36.8448 30.5219 36.8891 30.5219 36.9335Z" fill="#F02E65"/>
</svg>
