<svg width="80" height="81" viewBox="0 0 80 81" fill="none" xmlns="http://www.w3.org/2000/svg">
<path fill-rule="evenodd" clip-rule="evenodd" d="M55.0238 27.1776C56.0269 30.0794 56.7494 33.0419 56.9869 36.1126C57.2819 39.9219 57.1469 43.7044 56.3437 47.4513C56.3219 47.5544 56.2756 47.6513 56.2412 47.7513C55.9894 47.7519 55.7325 47.7207 55.4862 47.7588C53.4056 48.0857 51.3269 48.4244 49.2481 48.7613C47.0994 49.1094 44.9475 49.4438 42.8025 49.8157C42.0425 49.9469 41.1019 49.7901 40.795 50.8413C40.7863 50.8701 40.6988 50.875 40.6481 50.8913L40.7519 44.6094L40.6462 29.4519L41.6475 29.2801C43.285 29.0119 44.9225 28.7401 46.5613 28.4794C48.5169 28.1688 50.4744 27.8669 52.4312 27.5638C53.2944 27.4294 54.1587 27.3063 55.0238 27.1776Z" fill="#439934"/>
<path fill-rule="evenodd" clip-rule="evenodd" d="M38.5806 69.2038C37.5244 68.2957 36.4313 67.4276 35.4188 66.4725C29.9706 61.3338 25.9856 55.2857 24.0231 47.9938C23.4825 45.9869 23.1219 43.9475 23.0063 41.8738C22.925 40.4226 22.8075 38.9582 22.91 37.5144C23.1831 33.6744 23.7381 29.8713 24.8644 26.1726L24.9263 26.0863C25.0356 26.2319 25.1931 26.3607 25.2488 26.5251C26.3481 29.7626 27.4394 33.0026 28.525 36.2444C31.9363 46.4319 35.3431 56.6219 38.76 66.8069C38.8269 67.0057 39 67.1688 39.1244 67.3482L38.5806 69.2038Z" fill="#45A538"/>
<path fill-rule="evenodd" clip-rule="evenodd" d="M55.0238 27.1775C54.1588 27.3063 53.2938 27.4294 52.4306 27.5625C50.4738 27.8657 48.5163 28.1675 46.5606 28.4782C44.9219 28.7388 43.2844 29.0107 41.6469 29.2788L40.6456 29.4507L40.6381 28.7975C40.605 28.2607 40.5481 27.7244 40.5419 27.1875C40.4987 23.7638 40.4719 20.34 40.4294 16.9163C40.4031 14.7732 40.3638 12.6307 40.32 10.4882C40.2931 9.15691 40.2644 7.82504 40.2044 6.49567C40.1719 5.78129 40.0569 5.07067 40.01 4.35629C39.9837 3.94567 40.02 3.53192 40.0281 3.11942C40.5387 4.10879 41.0381 5.10567 41.5631 6.08754C42.3925 7.64004 43.7138 8.78379 44.9031 10.0319C49.605 14.9644 52.9431 20.6994 55.0238 27.1775Z" fill="#46A037"/>
<path fill-rule="evenodd" clip-rule="evenodd" d="M40.6475 50.8907C40.6981 50.8744 40.7863 50.8694 40.7944 50.8407C41.1013 49.7894 42.0419 49.9463 42.8019 49.815C44.9469 49.4438 47.0987 49.1088 49.2475 48.7607C51.3262 48.4238 53.405 48.085 55.4856 47.7582C55.7319 47.7194 55.9888 47.7513 56.2406 47.7507C55.8519 49.1382 55.5456 50.5557 55.0525 51.905C54.4925 53.4357 53.815 54.9294 53.0956 56.3938C52.0187 58.578 50.6858 60.6263 49.125 62.4957C47.9256 63.9382 46.5888 65.2713 45.2488 66.5882C44.5081 67.3163 43.635 67.9094 42.8225 68.5638L42.6119 68.42L41.8531 67.7713L41.0681 66.0507C40.5319 64.0435 40.2394 61.979 40.1969 59.9019L40.2112 59.5513L40.3181 58.035C40.3538 57.5175 40.4013 57.0007 40.4231 56.4819C40.5038 54.6182 40.5738 52.7544 40.6475 50.8907Z" fill="#409433"/>
<path fill-rule="evenodd" clip-rule="evenodd" d="M40.6475 50.8907C40.5738 52.7544 40.5038 54.6182 40.4244 56.4826C40.4025 57.0013 40.355 57.5182 40.3194 58.0357L39.8413 58.2163C38.7794 55.0901 37.7169 51.9969 36.6775 48.8957C34.9588 43.7651 33.2606 38.6263 31.5444 33.4944C30.1582 29.3522 28.7624 25.2133 27.3569 21.0776C27.2913 20.8838 27.1025 20.7326 26.9713 20.5613L30.0313 14.9351C30.1363 15.1176 30.275 15.2882 30.3413 15.4844C31.7585 19.6733 33.1685 23.8645 34.5713 28.0582C36.3938 33.5144 38.205 38.9751 40.0263 44.4319C40.0988 44.6501 40.2188 44.8513 40.3331 45.0957L40.7519 44.6082L40.6475 50.8907Z" fill="#4FAA41"/>
<path fill-rule="evenodd" clip-rule="evenodd" d="M26.9719 20.5619C27.1031 20.7332 27.2912 20.8844 27.3575 21.0782C28.763 25.2139 30.1588 29.3528 31.545 33.495C33.2612 38.6269 34.9594 43.7657 36.6781 48.8963C37.7169 51.9969 38.7794 55.0907 39.8419 58.2169L40.32 58.0363L40.2131 59.5525L40.1162 59.9019C39.95 61.5619 39.81 63.2257 39.6075 64.8819C39.5056 65.7119 39.2894 66.5269 39.125 67.3488C39.0012 67.1694 38.8275 67.0063 38.7606 66.8075C35.3437 56.6219 31.9369 46.4325 28.5256 36.245C27.4404 33.003 26.3483 29.7632 25.2494 26.5257C25.1937 26.3613 25.0369 26.2325 24.9269 26.0869L26.9719 20.5619Z" fill="#4AA73C"/>
<path fill-rule="evenodd" clip-rule="evenodd" d="M40.7513 44.6088L40.3325 45.0963C40.2181 44.8519 40.0981 44.65 40.0256 44.4325C38.205 38.9757 36.3931 33.515 34.5706 28.0588C33.1678 23.8651 31.7578 19.6739 30.3406 15.485C30.275 15.2888 30.1362 15.1175 30.0306 14.9357L33.815 9.95755C33.9344 10.1169 34.1044 10.2588 34.1662 10.4382C35.2169 13.5138 36.2581 16.5932 37.2931 19.6744C38.26 22.5519 39.2125 25.4338 40.1906 28.3075C40.2562 28.5 40.4844 28.6363 40.6369 28.7988L40.6444 29.4519C40.6806 34.5032 40.7163 39.5563 40.7513 44.6088Z" fill="#57AE47"/>
<path fill-rule="evenodd" clip-rule="evenodd" d="M40.6381 28.7976C40.4856 28.635 40.2575 28.4988 40.1919 28.3063C39.2138 25.4326 38.2613 22.5507 37.2944 19.6732C36.2594 16.5919 35.2181 13.5132 34.1675 10.4369C34.1056 10.2576 33.9356 10.1157 33.8163 9.9563C35.0469 8.7513 36.2394 7.50318 37.5194 6.3538C38.6575 5.33255 39.5725 4.23755 39.6144 2.6238C39.6163 2.55693 39.6513 2.49005 39.705 2.30255L40.0294 3.1188C40.0213 3.53193 39.9844 3.94505 40.0113 4.35568C40.0581 5.07005 40.1731 5.78068 40.2056 6.49505C40.2656 7.82443 40.2944 9.1563 40.3213 10.4876C40.3644 12.6301 40.4038 14.7726 40.4306 16.9157C40.4725 20.3394 40.5 23.7632 40.5431 27.1869C40.5481 27.725 40.6044 28.2607 40.6381 28.7976Z" fill="#60B24F"/>
<path fill-rule="evenodd" clip-rule="evenodd" d="M39.1238 67.3482C39.2881 66.5263 39.5044 65.7107 39.6063 64.8813C39.8094 63.2257 39.9488 61.5613 40.115 59.9013L40.1563 59.8951L40.1975 59.9019C40.24 61.979 40.5326 64.0435 41.0688 66.0507C40.9588 66.1957 40.8031 66.325 40.745 66.4888C40.2906 67.77 39.8625 69.0613 39.4056 70.3425C39.3431 70.5175 39.1694 70.6538 39.0469 70.8075L38.58 69.2038L39.1238 67.3482Z" fill="#A9AA88"/>
<path fill-rule="evenodd" clip-rule="evenodd" d="M39.0475 70.8082C39.17 70.6544 39.3444 70.5182 39.4062 70.3432C39.8631 69.0619 40.2919 67.7713 40.7456 66.4894C40.8038 66.3257 40.9587 66.1963 41.0694 66.0513L41.8538 67.7725C41.6988 67.9925 41.485 68.1907 41.3987 68.4357L39.8962 72.8476C39.8344 73.0244 39.6231 73.1494 39.4819 73.2988L39.0475 70.8082Z" fill="#B6B598"/>
<path fill-rule="evenodd" clip-rule="evenodd" d="M39.4819 73.2982C39.6237 73.1494 39.8344 73.0238 39.8962 72.8469L41.3987 68.435C41.4844 68.1907 41.6987 67.9919 41.8537 67.7719L42.6131 68.42C42.2462 68.7825 42.0425 69.2013 42.165 69.7307L41.9344 70.4857C41.8294 70.615 41.6775 70.7275 41.6256 70.8757C41.1012 72.3775 40.6006 73.8875 40.0725 75.3894C40.0056 75.58 39.82 75.7294 39.6887 75.8969C39.6206 75.03 39.5512 74.165 39.4819 73.2982Z" fill="#C2C1A7"/>
<path fill-rule="evenodd" clip-rule="evenodd" d="M39.6894 75.8969C39.82 75.7288 40.0056 75.5794 40.0731 75.3894C40.6012 73.8882 41.1019 72.3782 41.6262 70.8757C41.6781 70.7282 41.8294 70.615 41.935 70.4857L41.6169 73.9513C41.5319 74.0494 41.4088 74.135 41.3681 74.2494C41.0088 75.2582 40.67 76.2744 40.3094 77.2832C40.235 77.4913 40.0925 77.675 39.9812 77.8694C39.8825 77.74 39.7056 77.615 39.6975 77.48C39.6656 76.9544 39.6875 76.425 39.6894 75.8969Z" fill="#CECDB7"/>
<path fill-rule="evenodd" clip-rule="evenodd" d="M39.9806 77.8694C40.0919 77.6744 40.2344 77.4907 40.3087 77.2832C40.67 76.275 41.0081 75.2588 41.3675 74.2494C41.4081 74.135 41.5319 74.05 41.6162 73.9513L41.6237 76.2263L40.8625 78.1788L39.9806 77.8694Z" fill="#DBDAC7"/>
<path fill-rule="evenodd" clip-rule="evenodd" d="M40.8625 78.1794L41.6238 76.2269L41.7806 78.5369L40.8625 78.1794Z" fill="#EBE9DC"/>
<path fill-rule="evenodd" clip-rule="evenodd" d="M42.165 69.7313C42.0425 69.2019 42.2456 68.7825 42.6131 68.4207L42.8237 68.5644L42.165 69.7313Z" fill="#CECDB7"/>
<path fill-rule="evenodd" clip-rule="evenodd" d="M40.1975 59.9025L40.1562 59.8957L40.115 59.9019L40.2119 59.5526L40.1975 59.9025Z" fill="#4FAA41"/>
</svg>
