<svg width="80" height="81" viewBox="0 0 80 81" fill="none" xmlns="http://www.w3.org/2000/svg">
<path d="M58.6306 57.99C59.1213 53.9069 58.9744 53.3075 62.0156 53.9694L62.7875 54.0369C65.1263 54.1432 68.1856 53.6607 69.9831 52.8257C73.8525 51.03 76.1463 48.0332 72.3319 48.82C63.6294 50.6157 63.0312 47.6688 63.0312 47.6688C72.2206 34.0344 76.0619 16.7263 72.7456 12.4894C63.7019 0.933779 48.0475 6.39815 47.7856 6.5394L47.7019 6.55503C45.9825 6.19815 44.0581 5.98503 41.8962 5.95003C37.9581 5.88503 34.97 6.98253 32.7031 8.70128C32.7031 8.70128 4.77625 -2.80435 6.07562 23.1707C6.35187 28.6963 13.9956 64.9819 23.1131 54.0219C26.4456 50.0144 29.6656 46.6257 29.6656 46.6257C31.2644 47.6875 33.1794 48.23 35.1869 48.035L35.3425 47.9025C35.2937 48.4 35.315 48.8869 35.4044 49.4632C33.0562 52.0875 33.7462 52.5482 29.0506 53.5144C24.2994 54.4932 27.0906 56.2363 28.9125 56.6919C31.1219 57.2444 36.2325 58.0269 39.6862 53.1932L39.5487 53.7444C40.47 54.4819 40.4081 59.0425 40.5381 62.3007C40.6687 65.5594 40.8869 68.6 41.5513 70.3932C42.2156 72.1857 42.9994 76.8032 49.1706 75.4807C54.3281 74.3782 58.2712 72.7875 58.6306 57.99Z" fill="black"/>
<path d="M47.1612 78.705C44.4319 78.705 42.6544 77.6494 41.575 76.6301C39.9456 75.0926 39.2994 73.1119 38.9131 71.9288L38.7462 71.4351C37.9687 69.3363 37.705 66.3144 37.5487 62.4232C37.525 61.8388 37.5087 61.2369 37.4906 60.5988C37.4775 60.1319 37.4612 59.5463 37.4375 58.9338C36.4542 59.4027 35.4104 59.7325 34.3362 59.9138C32.4119 60.2426 30.3431 60.1363 28.1862 59.5969C26.6644 59.2163 25.0831 58.4276 24.1819 57.2094C21.555 59.5101 19.0494 59.1982 17.6844 58.7426C15.2762 57.9394 13.1212 55.6826 11.0956 51.8444C9.65249 49.1101 8.25687 45.5475 6.94687 41.255C4.66562 33.78 3.21624 25.9069 3.08749 23.3219C2.68249 15.2313 4.86062 9.44505 9.55999 6.12567C16.9731 0.889424 28.205 3.9688 32.3 5.36692C35.0512 3.7088 38.2881 2.90192 41.9456 2.96005C43.91 2.99192 45.7806 3.16442 47.5181 3.47442C49.3306 2.90442 52.9106 2.0863 57.0087 2.13755C64.5594 2.22755 70.8162 5.17005 75.1019 10.6469C78.1606 14.5544 76.6481 22.76 75.475 27.3038C73.8237 33.695 70.9306 40.4925 67.3769 46.41C68.3419 46.4169 69.74 46.3013 71.7275 45.8907C75.6487 45.0813 76.7956 47.1838 77.1069 48.1251C78.3537 51.9013 72.9337 54.7551 71.2431 55.5401C69.0769 56.5457 65.545 57.1582 62.6525 57.0257L62.5262 57.0176L61.7662 56.9507L61.6912 57.5844L61.6187 58.2038C61.4244 65.7032 60.3531 70.4526 58.1487 73.5907C55.8381 76.8807 52.6269 77.8026 49.7981 78.4088C48.8331 78.6151 47.9562 78.705 47.1612 78.705ZM41.4175 51.4107C43.1794 52.8207 43.3337 55.4738 43.4719 60.4319C43.4894 61.0507 43.5056 61.6363 43.5275 62.1832C43.5937 63.8394 43.7494 67.7176 44.3569 69.3563C44.4425 69.5882 44.5194 69.8232 44.6006 70.0726C45.2775 72.1451 45.6169 73.1844 48.5437 72.5588C51.0006 72.0319 52.2637 71.5594 53.2525 70.1519C54.6894 68.1057 55.4931 63.9894 55.6406 57.9176L58.63 57.9901L55.6612 57.6338L55.7487 56.8926C56.0331 54.4488 56.2381 52.6838 57.8712 51.5163C59.1819 50.5801 60.675 50.6707 61.8644 50.8851C60.5575 49.8976 60.1962 48.7394 60.1 48.2644L59.8506 47.0363L60.5512 45.9969C64.5869 40.0094 67.9144 32.6507 69.6819 25.8069C71.4981 18.775 70.9444 15.0407 70.3906 14.3344C63.06 4.96755 50.3481 8.83505 49.0206 9.2738L48.7962 9.39505L47.6712 9.60442L47.095 9.48505C45.5062 9.15505 43.7412 8.97255 41.8494 8.94192C38.8769 8.89192 36.4787 9.59442 34.5125 11.0863L33.1481 12.1207L31.565 11.4688C28.1825 10.0857 18.2475 7.30505 13.005 11.0182C10.095 13.0794 8.76937 17.1182 9.06437 23.0226C9.16187 24.9719 10.4862 32.3513 12.6712 39.5082C15.6906 49.3988 18.4344 52.6844 19.58 53.0663C19.78 53.1338 20.2987 52.7307 20.815 52.1107C22.9675 49.5303 25.1964 47.0146 27.4987 44.5669L29.23 42.7451L31.3231 44.1357C32.1669 44.6963 33.0975 45.0144 34.0531 45.0744L39.045 40.8169L38.3219 48.1969C38.3056 48.3626 38.2975 48.5882 38.3625 49.0069L38.58 50.4057L37.6362 51.4607L37.5275 51.5832L40.27 52.8488L41.4175 51.4107Z" fill="black"/>
<path d="M72.3319 48.82C63.6287 50.6157 63.0306 47.6688 63.0306 47.6688C72.22 34.0338 76.0612 16.725 72.7462 12.4894C63.7025 0.93441 48.0469 6.39878 47.7856 6.54066L47.7012 6.55566C45.9819 6.19878 44.0575 5.98628 41.8944 5.95128C37.9562 5.88691 34.9694 6.98378 32.7025 8.70253C32.7025 8.70253 4.775 -2.80246 6.07375 23.1719C6.35 28.6982 13.9937 64.9838 23.1112 54.0238C26.4437 50.0163 29.6631 46.6275 29.6631 46.6275C31.2625 47.6894 33.1769 48.2319 35.1838 48.0369L35.34 47.9044C35.2912 48.4019 35.3138 48.8888 35.4025 49.465C33.0538 52.0894 33.7438 52.55 29.0481 53.5163C24.2969 54.495 27.0881 56.2382 28.9106 56.6938C31.1194 57.2463 36.2306 58.0288 39.6838 53.195L39.5456 53.7463C40.4662 54.4838 41.1125 58.5413 41.0044 62.2194C40.8956 65.8975 40.8231 68.4232 41.5487 70.3957C42.2737 72.3682 42.9963 76.8057 49.1687 75.4832C54.3262 74.3782 56.9987 71.5138 57.3713 66.7363C57.635 63.3394 58.2319 63.8419 58.27 60.805L58.7494 59.3675C59.3019 54.7632 58.8369 53.2782 62.015 53.9688L62.7869 54.0363C65.1256 54.1425 68.1862 53.66 69.9831 52.825C73.8519 51.0307 76.1463 48.0332 72.3319 48.82Z" fill="#336791"/>
<path d="M47.4731 76.8619C42.3281 76.8619 40.6981 72.7876 40.0313 71.1213C39.055 68.6794 38.8444 59.2032 39.0619 51.4319C39.0651 51.3009 39.0942 51.1717 39.1476 51.052C39.2009 50.9323 39.2775 50.8242 39.3727 50.7342C39.468 50.6442 39.5802 50.5738 39.7027 50.5273C39.8253 50.4808 39.9559 50.459 40.0869 50.4632C40.2178 50.4667 40.3467 50.4961 40.4662 50.5495C40.5858 50.6029 40.6936 50.6794 40.7836 50.7745C40.8736 50.8697 40.9439 50.9816 40.9906 51.104C41.0373 51.2263 41.0594 51.3567 41.0556 51.4875C40.805 60.4507 41.1606 68.5732 41.8831 70.3807C43.0106 73.1988 44.7206 75.6638 49.555 74.6282C54.1444 73.6438 55.8631 71.9038 56.6288 67.4657C57.2163 64.0601 58.3781 54.3713 58.5213 52.4594C58.5308 52.3288 58.5661 52.2013 58.625 52.0843C58.6839 51.9673 58.7654 51.8631 58.8647 51.7776C58.964 51.6921 59.0791 51.6271 59.2036 51.5862C59.3281 51.5454 59.4594 51.5295 59.59 51.5394C59.8536 51.5594 60.0986 51.6832 60.271 51.8835C60.4435 52.0839 60.5295 52.3445 60.51 52.6082C60.3606 54.5988 59.2044 64.2688 58.5944 67.8051C57.6906 73.0469 55.3538 75.4244 49.9731 76.5782C49.0588 76.7738 48.2281 76.8613 47.4731 76.8619ZM19.5756 56.9613C19.1259 56.9598 18.6794 56.8859 18.2531 56.7425C14.9113 55.6275 11.7281 50.185 8.79188 40.5644C6.55688 33.2413 5.14063 25.5975 5.01626 23.1132C4.64813 15.7482 6.54438 10.5375 10.6538 7.62692C18.7831 1.86692 32.4588 7.35192 33.0369 7.58817C33.2818 7.6882 33.4769 7.88143 33.5794 8.12535C33.6818 8.36926 33.6832 8.64388 33.5831 8.88879C33.4831 9.1337 33.2899 9.32885 33.046 9.43129C32.802 9.53373 32.5274 9.53508 32.2825 9.43504C32.1506 9.38129 19.0369 4.12754 11.8025 9.25692C8.28876 11.7482 6.67563 16.3769 7.00751 23.0138C7.11188 25.1069 8.43501 32.5669 10.6988 39.9819C13.32 48.5707 16.3031 53.99 18.8838 54.8507C19.2888 54.9857 20.5213 55.3963 22.2831 53.2775C24.3378 50.8099 26.4695 48.4075 28.675 46.0738C28.8596 45.8897 29.1088 45.7852 29.3695 45.7826C29.6301 45.78 29.8814 45.8795 30.0696 46.0599C30.2578 46.2402 30.3679 46.4871 30.3764 46.7476C30.3849 47.0081 30.2911 47.2616 30.115 47.4538C30.085 47.485 27.0856 50.6207 23.8169 54.5532C22.2688 56.4151 20.785 56.9613 19.5756 56.9613ZM62.9688 48.5582C62.788 48.5579 62.6106 48.5086 62.4557 48.4153C62.3008 48.3221 62.1742 48.1885 62.0893 48.0289C62.0044 47.8692 61.9646 47.6895 61.9739 47.509C61.9833 47.3284 62.0416 47.1538 62.1425 47.0038C71.4319 33.2194 74.6925 16.5638 71.9 12.995C68.385 8.50379 63.4219 6.15817 57.1475 6.02254C52.5019 5.92254 48.8094 7.10879 48.2056 7.31567L48.0538 7.37754C47.4469 7.56817 46.9813 7.23567 46.8056 6.84692C46.7055 6.62419 46.6903 6.37252 46.763 6.13937C46.8356 5.90622 46.9911 5.70771 47.2 5.58129C47.2288 5.56442 47.32 5.52567 47.4681 5.47129C48.4938 5.09567 52.2425 3.97067 56.8856 4.02379C63.8281 4.09754 69.5631 6.77442 73.4694 11.7663C75.3175 14.1282 75.3219 19.5694 73.4813 26.6957C71.605 33.9613 68.0744 41.7694 63.7956 48.1188C63.6044 48.4044 63.2894 48.5582 62.9688 48.5582ZM63.4438 54.9394C61.8575 54.9394 60.4356 54.7157 59.5844 54.2057C58.7094 53.6813 58.5425 52.9688 58.5206 52.5907C58.2819 48.3969 60.5956 47.6669 61.7756 47.3338C61.6113 47.085 61.3775 46.7925 61.1356 46.4907C60.4475 45.6307 59.505 44.4532 58.7788 42.6919C58.665 42.4169 58.3088 41.7775 57.8963 41.0369C55.6594 37.0257 51.005 28.6788 53.995 24.4044C55.3788 22.4263 58.1344 21.6475 62.1944 22.0819C61 18.4432 55.3125 7.06067 41.8169 6.83942C37.7581 6.77192 34.4294 8.02004 31.9281 10.5457C26.3281 16.2013 26.5306 26.4344 26.5338 26.5369C26.5372 26.6678 26.5148 26.7981 26.4679 26.9204C26.421 27.0427 26.3505 27.1545 26.2603 27.2495C26.1702 27.3445 26.0622 27.4208 25.9426 27.4741C25.823 27.5274 25.694 27.5566 25.5631 27.56C25.4322 27.5635 25.3019 27.5411 25.1796 27.4942C25.0574 27.4473 24.9456 27.3768 24.8505 27.2866C24.7555 27.1965 24.6792 27.0885 24.6259 26.9689C24.5727 26.8493 24.5435 26.7203 24.54 26.5894C24.5275 26.135 24.3188 15.3963 30.5113 9.14192C33.4094 6.21504 37.2244 4.77004 41.85 4.84567C50.4838 4.98754 56.0413 9.37692 59.1825 13.0338C62.6069 17.0194 64.2856 21.4157 64.4238 22.8832C64.5269 23.9744 63.7438 24.1925 63.5856 24.225L63.2256 24.2332C59.2413 23.595 56.685 24.0382 55.6281 25.5482C53.3538 28.7988 57.7569 36.6944 59.6369 40.0663C60.1169 40.9263 60.4631 41.5482 60.6219 41.9319C61.2394 43.4294 62.045 44.4357 62.6919 45.2444C63.2613 45.9557 63.7544 46.5725 63.9306 47.2963C64.0125 47.44 65.1744 49.1588 72.0688 47.7357C73.7969 47.3794 74.8331 47.6838 75.15 48.6419C75.7731 50.5263 72.2769 52.7244 70.3413 53.6232C68.6069 54.4294 65.8388 54.9394 63.4438 54.9394ZM60.5088 52.4263C60.7275 52.6469 61.8219 53.0275 64.0881 52.93C66.1031 52.8438 68.2281 52.4057 69.5031 51.8138C71.1338 51.0563 72.2225 50.2094 72.7863 49.6313L72.4738 49.6888C68.0656 50.5988 64.9475 50.4775 63.2063 49.3282C63.0893 49.2508 62.9766 49.1672 62.8688 49.0775C62.68 49.1519 62.5056 49.2007 62.3813 49.2357C61.3938 49.5126 60.3725 49.7994 60.5088 52.4263ZM32.0325 57.9982C30.9375 57.9982 29.785 57.8488 28.6081 57.5544C27.3888 57.2494 25.3331 56.3313 25.3644 54.8232C25.4 53.1313 27.8606 52.6238 28.7869 52.4332C32.1331 51.7438 32.3513 51.4676 33.3969 50.1394C33.7019 49.7526 34.0813 49.2707 34.5988 48.6932C35.3669 47.8332 36.2063 47.3975 37.0938 47.3975C37.7119 47.3975 38.2188 47.6069 38.5538 47.7463C39.6213 48.1888 40.5119 49.2588 40.8781 50.5382C41.2088 51.6926 41.0506 52.8038 40.4344 53.6669C38.4113 56.5 35.5056 57.9982 32.0325 57.9982ZM27.5188 54.9088C27.8194 55.1413 28.4219 55.4519 29.0925 55.6194C30.1119 55.8744 31.1006 56.0038 32.0331 56.0038C34.8744 56.0038 37.1556 54.8275 38.8125 52.5075C39.1581 52.0238 39.0544 51.4094 38.9619 51.0863C38.7681 50.4094 38.2869 49.7938 37.7913 49.5882C37.5225 49.4769 37.2994 49.3919 37.0944 49.3919C36.9844 49.3919 36.6494 49.3919 36.0856 50.0225C35.6966 50.4601 35.3226 50.9108 34.9644 51.3738C33.6619 53.0275 33.065 53.5888 29.19 54.3869C28.2444 54.5807 27.7594 54.7782 27.5188 54.9088ZM35.1869 50.3088C34.9488 50.3084 34.7187 50.2229 34.5382 50.0677C34.3577 49.9125 34.2386 49.6979 34.2025 49.4626C34.1777 49.297 34.161 49.1303 34.1525 48.9632C31.6125 48.9157 29.1619 47.8257 27.3013 45.8844C24.9488 43.43 23.8781 40.0294 24.3644 36.555C24.8925 32.7819 24.695 29.4513 24.5888 27.6619C24.5594 27.1644 24.5381 26.805 24.5394 26.5563C24.5413 26.2407 24.5475 25.4038 27.345 23.9857C28.34 23.4813 30.335 22.6013 32.5144 22.3757C36.125 22.0025 38.505 23.6107 39.2175 26.9044C41.1406 35.7969 39.37 39.73 38.0769 42.6025C37.8363 43.1375 37.6088 43.6426 37.4269 44.1319L37.2663 44.5632C36.5831 46.395 35.9925 47.9776 36.1738 49.1594C36.1937 49.2889 36.1879 49.421 36.1567 49.5482C36.1255 49.6754 36.0696 49.7952 35.9921 49.9007C35.9146 50.0063 35.8171 50.0956 35.7051 50.1635C35.5931 50.2313 35.4688 50.2765 35.3394 50.2963L35.1869 50.3088ZM26.54 26.8325L26.5788 27.5444C26.6888 29.4032 26.8938 32.8619 26.3388 36.8319C25.9381 39.6975 26.8131 42.4944 28.7406 44.5044C30.2638 46.0932 32.2681 46.9701 34.3281 46.9701H34.3706C34.6013 45.9982 34.9844 44.9719 35.3969 43.8663L35.5563 43.4375C35.7619 42.885 36.0025 42.35 36.2575 41.7838C37.5019 39.0188 39.0513 35.5769 37.2669 27.3263C36.9138 25.6919 36.0569 24.7463 34.6488 24.4344C31.7563 23.7957 27.4456 25.9713 26.54 26.8325ZM32.5588 26.4094C32.5088 26.7619 33.2044 27.7032 34.1119 27.8288C35.0175 27.9557 35.7925 27.2194 35.8419 26.8669C35.8913 26.5144 35.1963 26.1257 34.2888 25.9994C33.3819 25.8732 32.6069 26.0569 32.5588 26.4094ZM34.32 28.1757L34.0656 28.1582C33.5031 28.08 32.9344 27.7257 32.545 27.2094C32.4081 27.0282 32.185 26.6769 32.2294 26.3632C32.2925 25.9032 32.8538 25.6275 33.7294 25.6275C33.925 25.6275 34.1288 25.6419 34.3338 25.6707C34.8125 25.7369 35.2569 25.875 35.585 26.0582C36.1538 26.3757 36.1956 26.73 36.17 26.9132C36.1 27.4213 35.2919 28.1757 34.32 28.1757ZM32.8894 26.4682C32.9175 26.6857 33.4563 27.4032 34.1575 27.5L34.3206 27.5113C34.9681 27.5113 35.4519 27.0019 35.5088 26.835C35.4488 26.7213 35.0325 26.4388 34.2431 26.3288C34.0732 26.3044 33.9017 26.2921 33.73 26.2919C33.2225 26.2919 32.9531 26.4063 32.8894 26.4682ZM60.1425 25.69C60.1919 26.0425 59.4969 26.9838 58.59 27.11C57.6838 27.2363 56.9081 26.5007 56.8581 26.1482C56.8106 25.7957 57.5056 25.4063 58.4119 25.2807C59.3181 25.1538 60.0925 25.3382 60.1425 25.69ZM58.3806 27.29C57.5081 27.29 56.755 26.6113 56.6931 26.1707C56.6213 25.6419 57.4919 25.24 58.3881 25.1157C58.5856 25.0882 58.7813 25.0744 58.9694 25.0744C59.7431 25.0744 60.2556 25.3013 60.3069 25.6675C60.34 25.9044 60.1581 26.27 59.845 26.6C59.6381 26.8169 59.2038 27.1925 58.6119 27.2744L58.3806 27.29ZM58.97 25.4069C58.7975 25.4069 58.6175 25.42 58.435 25.445C57.5344 25.5707 56.9969 25.9319 57.0231 26.1257C57.0531 26.3388 57.6281 26.9582 58.3813 26.9582L58.5669 26.945C59.0588 26.8769 59.4281 26.5557 59.6044 26.3707C59.8813 26.08 59.9913 25.8063 59.9781 25.7132C59.9606 25.5894 59.6281 25.4069 58.97 25.4069ZM61.4481 45.9338C61.2675 45.9339 61.0902 45.8849 60.9352 45.792C60.7802 45.699 60.6535 45.5657 60.5685 45.4063C60.4835 45.2469 60.4434 45.0673 60.4526 44.8869C60.4618 44.7064 60.5199 44.5319 60.6206 44.3819C62.7444 41.21 62.3556 37.9757 61.98 34.8475C61.8194 33.515 61.6544 32.1369 61.6969 30.8144C61.7406 29.4538 61.9138 28.3313 62.0806 27.2457C62.2788 25.9594 62.4663 24.7444 62.3888 23.3019C62.3817 23.1712 62.4005 23.0403 62.444 22.9168C62.4875 22.7933 62.5549 22.6796 62.6424 22.5822C62.7298 22.4847 62.8356 22.4055 62.9537 22.3489C63.0718 22.2923 63.1999 22.2596 63.3306 22.2525C63.4614 22.2455 63.5922 22.2642 63.7157 22.3078C63.8392 22.3513 63.9529 22.4187 64.0504 22.5062C64.1478 22.5936 64.2271 22.6994 64.2836 22.8175C64.3402 22.9356 64.373 23.0637 64.38 23.1944C64.4688 24.8432 64.2569 26.2182 64.0519 27.5488C63.8938 28.5757 63.73 29.6375 63.6906 30.8782C63.6525 32.0494 63.8019 33.2932 63.96 34.6094C64.36 37.9357 64.8131 41.7057 62.2781 45.4913C62.1868 45.6276 62.0633 45.7393 61.9186 45.8165C61.7738 45.8937 61.6122 45.934 61.4481 45.9338Z" fill="white"/>
</svg>
