<svg width="248" height="52" viewBox="0 0 248 52" fill="none" xmlns="http://www.w3.org/2000/svg">
<rect x="0.800003" y="0.767273" width="247" height="51" rx="4" fill="#3B3A30"/>
<path d="M36.925 14.2673H16.675C15.6391 14.2673 14.8 15.1063 14.8 16.1423V36.3923C14.8 37.4282 15.6391 38.2673 16.675 38.2673H36.925C37.9609 38.2673 38.8 37.4282 38.8 36.3923V16.1423C38.8 15.1063 37.9609 14.2673 36.925 14.2673ZM29.4484 24.2329L29.3125 26.0282H27.4703V32.2626H25.1453V26.0282H23.9031V24.2329H25.1453V23.0282C25.1453 22.4985 25.1594 21.6782 25.5438 21.1673C25.9516 20.6282 26.5094 20.2626 27.4703 20.2626C29.0359 20.2626 29.6922 20.4876 29.6922 20.4876L29.3828 22.3251C29.3828 22.3251 28.8672 22.1751 28.3844 22.1751C27.9016 22.1751 27.4703 22.3485 27.4703 22.8313V24.2329H29.4484Z" fill="white"/>
<path d="M53.36 31.3723C52.66 31.3723 52.03 31.2523 51.47 31.0123C50.91 30.7623 50.47 30.4123 50.15 29.9623C49.83 29.5123 49.67 28.9873 49.67 28.3873H51.5C51.54 28.8373 51.715 29.2073 52.025 29.4973C52.345 29.7873 52.79 29.9323 53.36 29.9323C53.95 29.9323 54.41 29.7923 54.74 29.5123C55.07 29.2223 55.235 28.8523 55.235 28.4023C55.235 28.0523 55.13 27.7673 54.92 27.5473C54.72 27.3273 54.465 27.1573 54.155 27.0373C53.855 26.9173 53.435 26.7873 52.895 26.6473C52.215 26.4673 51.66 26.2873 51.23 26.1073C50.81 25.9173 50.45 25.6273 50.15 25.2373C49.85 24.8473 49.7 24.3273 49.7 23.6773C49.7 23.0773 49.85 22.5523 50.15 22.1023C50.45 21.6523 50.87 21.3073 51.41 21.0673C51.95 20.8273 52.575 20.7073 53.285 20.7073C54.295 20.7073 55.12 20.9623 55.76 21.4723C56.41 21.9723 56.77 22.6623 56.84 23.5423H54.95C54.92 23.1623 54.74 22.8373 54.41 22.5673C54.08 22.2973 53.645 22.1623 53.105 22.1623C52.615 22.1623 52.215 22.2873 51.905 22.5373C51.595 22.7873 51.44 23.1473 51.44 23.6173C51.44 23.9373 51.535 24.2023 51.725 24.4123C51.925 24.6123 52.175 24.7723 52.475 24.8923C52.775 25.0123 53.185 25.1423 53.705 25.2823C54.395 25.4723 54.955 25.6623 55.385 25.8523C55.825 26.0423 56.195 26.3373 56.495 26.7373C56.805 27.1273 56.96 27.6523 56.96 28.3123C56.96 28.8423 56.815 29.3423 56.525 29.8123C56.245 30.2823 55.83 30.6623 55.28 30.9523C54.74 31.2323 54.1 31.3723 53.36 31.3723ZM60.6877 20.8423V31.2673H58.9777V20.8423H60.6877ZM70.4778 23.8423C70.2078 23.3223 69.8328 22.9323 69.3528 22.6723C68.8728 22.4023 68.3178 22.2673 67.6878 22.2673C66.9978 22.2673 66.3828 22.4223 65.8428 22.7323C65.3028 23.0423 64.8778 23.4823 64.5678 24.0523C64.2678 24.6223 64.1178 25.2823 64.1178 26.0323C64.1178 26.7823 64.2678 27.4473 64.5678 28.0273C64.8778 28.5973 65.3028 29.0373 65.8428 29.3473C66.3828 29.6573 66.9978 29.8123 67.6878 29.8123C68.6178 29.8123 69.3728 29.5523 69.9528 29.0323C70.5328 28.5123 70.8878 27.8073 71.0178 26.9173H67.1028V25.5523H72.8478V26.8873C72.7378 27.6973 72.4478 28.4423 71.9778 29.1223C71.5178 29.8023 70.9128 30.3473 70.1628 30.7573C69.4228 31.1573 68.5978 31.3573 67.6878 31.3573C66.7078 31.3573 65.8128 31.1323 65.0028 30.6823C64.1928 30.2223 63.5478 29.5873 63.0678 28.7773C62.5978 27.9673 62.3628 27.0523 62.3628 26.0323C62.3628 25.0123 62.5978 24.0973 63.0678 23.2873C63.5478 22.4773 64.1928 21.8473 65.0028 21.3973C65.8228 20.9373 66.7178 20.7073 67.6878 20.7073C68.7978 20.7073 69.7828 20.9823 70.6428 21.5323C71.5128 22.0723 72.1428 22.8423 72.5328 23.8423H70.4778ZM83.0994 31.2673H81.3894L76.2444 23.4823V31.2673H74.5344V20.8273H76.2444L81.3894 28.5973V20.8273H83.0994V31.2673ZM90.9364 20.8423V27.4873C90.9364 28.2773 91.1414 28.8723 91.5514 29.2723C91.9714 29.6723 92.5514 29.8723 93.2914 29.8723C94.0414 29.8723 94.6214 29.6723 95.0314 29.2723C95.4514 28.8723 95.6614 28.2773 95.6614 27.4873V20.8423H97.3714V27.4573C97.3714 28.3073 97.1864 29.0273 96.8164 29.6173C96.4464 30.2073 95.9514 30.6473 95.3314 30.9373C94.7114 31.2273 94.0264 31.3723 93.2764 31.3723C92.5264 31.3723 91.8414 31.2273 91.2214 30.9373C90.6114 30.6473 90.1264 30.2073 89.7664 29.6173C89.4064 29.0273 89.2264 28.3073 89.2264 27.4573V20.8423H90.9364ZM106.888 23.9473C106.888 24.4773 106.763 24.9773 106.513 25.4473C106.263 25.9173 105.863 26.3023 105.313 26.6023C104.763 26.8923 104.058 27.0373 103.198 27.0373H101.308V31.2673H99.5979V20.8423H103.198C103.998 20.8423 104.673 20.9823 105.223 21.2623C105.783 21.5323 106.198 21.9023 106.468 22.3723C106.748 22.8423 106.888 23.3673 106.888 23.9473ZM103.198 25.6423C103.848 25.6423 104.333 25.4973 104.653 25.2073C104.973 24.9073 105.133 24.4873 105.133 23.9473C105.133 22.8073 104.488 22.2373 103.198 22.2373H101.308V25.6423H103.198ZM125.99 20.8423L122.9 31.2673H120.965L118.775 23.3773L116.45 31.2673L114.53 31.2823L111.575 20.8423H113.39L115.55 29.3323L117.89 20.8423H119.81L121.985 29.2873L124.16 20.8423H125.99ZM129.111 20.8423V31.2673H127.401V20.8423H129.111ZM138.091 20.8423V22.2373H135.316V31.2673H133.606V22.2373H130.816V20.8423H138.091ZM148.147 20.8423V31.2673H146.437V26.7073H141.532V31.2673H139.822V20.8423H141.532V25.3123H146.437V20.8423H148.147ZM160.43 20.8423V22.2373H156.005V25.3123H159.455V26.7073H156.005V31.2673H154.295V20.8423H160.43ZM168.3 29.1373H163.935L163.185 31.2673H161.4L165.135 20.8273H167.115L170.85 31.2673H169.05L168.3 29.1373ZM167.82 27.7423L166.125 22.8973L164.415 27.7423H167.82ZM171.904 26.0323C171.904 25.0123 172.139 24.0973 172.609 23.2873C173.089 22.4773 173.734 21.8473 174.544 21.3973C175.364 20.9373 176.259 20.7073 177.229 20.7073C178.339 20.7073 179.324 20.9823 180.184 21.5323C181.054 22.0723 181.684 22.8423 182.074 23.8423H180.019C179.749 23.2923 179.374 22.8823 178.894 22.6123C178.414 22.3423 177.859 22.2073 177.229 22.2073C176.539 22.2073 175.924 22.3623 175.384 22.6723C174.844 22.9823 174.419 23.4273 174.109 24.0073C173.809 24.5873 173.659 25.2623 173.659 26.0323C173.659 26.8023 173.809 27.4773 174.109 28.0573C174.419 28.6373 174.844 29.0873 175.384 29.4073C175.924 29.7173 176.539 29.8723 177.229 29.8723C177.859 29.8723 178.414 29.7373 178.894 29.4673C179.374 29.1973 179.749 28.7873 180.019 28.2373H182.074C181.684 29.2373 181.054 30.0073 180.184 30.5473C179.324 31.0873 178.339 31.3573 177.229 31.3573C176.249 31.3573 175.354 31.1323 174.544 30.6823C173.734 30.2223 173.089 29.5873 172.609 28.7773C172.139 27.9673 171.904 27.0523 171.904 26.0323ZM185.785 22.2223V25.2823H189.385V26.6773H185.785V29.8723H189.835V31.2673H184.075V20.8273H189.835V22.2223H185.785ZM197.522 25.9123C198.082 26.0123 198.557 26.3073 198.947 26.7973C199.337 27.2873 199.532 27.8423 199.532 28.4623C199.532 28.9923 199.392 29.4723 199.112 29.9023C198.842 30.3223 198.447 30.6573 197.927 30.9073C197.407 31.1473 196.802 31.2673 196.112 31.2673H191.942V20.8423H195.917C196.627 20.8423 197.237 20.9623 197.747 21.2023C198.257 21.4423 198.642 21.7673 198.902 22.1773C199.162 22.5773 199.292 23.0273 199.292 23.5273C199.292 24.1273 199.132 24.6273 198.812 25.0273C198.492 25.4273 198.062 25.7223 197.522 25.9123ZM193.652 25.2223H195.767C196.327 25.2223 196.762 25.0973 197.072 24.8473C197.392 24.5873 197.552 24.2173 197.552 23.7373C197.552 23.2673 197.392 22.9023 197.072 22.6423C196.762 22.3723 196.327 22.2373 195.767 22.2373H193.652V25.2223ZM195.962 29.8723C196.542 29.8723 196.997 29.7323 197.327 29.4523C197.657 29.1723 197.822 28.7823 197.822 28.2823C197.822 27.7723 197.647 27.3673 197.297 27.0673C196.947 26.7673 196.482 26.6173 195.902 26.6173H193.652V29.8723H195.962ZM206.145 31.3723C205.175 31.3723 204.28 31.1473 203.46 30.6973C202.65 30.2373 202.005 29.6023 201.525 28.7923C201.055 27.9723 200.82 27.0523 200.82 26.0323C200.82 25.0123 201.055 24.0973 201.525 23.2873C202.005 22.4773 202.65 21.8473 203.46 21.3973C204.28 20.9373 205.175 20.7073 206.145 20.7073C207.125 20.7073 208.02 20.9373 208.83 21.3973C209.65 21.8473 210.295 22.4773 210.765 23.2873C211.235 24.0973 211.47 25.0123 211.47 26.0323C211.47 27.0523 211.235 27.9723 210.765 28.7923C210.295 29.6023 209.65 30.2373 208.83 30.6973C208.02 31.1473 207.125 31.3723 206.145 31.3723ZM206.145 29.8873C206.835 29.8873 207.45 29.7323 207.99 29.4223C208.53 29.1023 208.95 28.6523 209.25 28.0723C209.56 27.4823 209.715 26.8023 209.715 26.0323C209.715 25.2623 209.56 24.5873 209.25 24.0073C208.95 23.4273 208.53 22.9823 207.99 22.6723C207.45 22.3623 206.835 22.2073 206.145 22.2073C205.455 22.2073 204.84 22.3623 204.3 22.6723C203.76 22.9823 203.335 23.4273 203.025 24.0073C202.725 24.5873 202.575 25.2623 202.575 26.0323C202.575 26.8023 202.725 27.4823 203.025 28.0723C203.335 28.6523 203.76 29.1023 204.3 29.4223C204.84 29.7323 205.455 29.8873 206.145 29.8873ZM217.908 31.3723C216.938 31.3723 216.043 31.1473 215.223 30.6973C214.413 30.2373 213.768 29.6023 213.288 28.7923C212.818 27.9723 212.583 27.0523 212.583 26.0323C212.583 25.0123 212.818 24.0973 213.288 23.2873C213.768 22.4773 214.413 21.8473 215.223 21.3973C216.043 20.9373 216.938 20.7073 217.908 20.7073C218.888 20.7073 219.783 20.9373 220.593 21.3973C221.413 21.8473 222.058 22.4773 222.528 23.2873C222.998 24.0973 223.233 25.0123 223.233 26.0323C223.233 27.0523 222.998 27.9723 222.528 28.7923C222.058 29.6023 221.413 30.2373 220.593 30.6973C219.783 31.1473 218.888 31.3723 217.908 31.3723ZM217.908 29.8873C218.598 29.8873 219.213 29.7323 219.753 29.4223C220.293 29.1023 220.713 28.6523 221.013 28.0723C221.323 27.4823 221.478 26.8023 221.478 26.0323C221.478 25.2623 221.323 24.5873 221.013 24.0073C220.713 23.4273 220.293 22.9823 219.753 22.6723C219.213 22.3623 218.598 22.2073 217.908 22.2073C217.218 22.2073 216.603 22.3623 216.063 22.6723C215.523 22.9823 215.098 23.4273 214.788 24.0073C214.488 24.5873 214.338 25.2623 214.338 26.0323C214.338 26.8023 214.488 27.4823 214.788 28.0723C215.098 28.6523 215.523 29.1023 216.063 29.4223C216.603 29.7323 217.218 29.8873 217.908 29.8873ZM230.66 31.2673L226.625 26.6023V31.2673H224.915V20.8423H226.625V25.5973L230.675 20.8423H232.82L228.29 26.0623L232.895 31.2673H230.66Z" fill="white"/>
</svg>
