<svg width="81" height="81" viewBox="0 0 81 81" fill="none" xmlns="http://www.w3.org/2000/svg">
<g clip-path="url(#clip0_169_423)">
<path d="M28.541 81.4523C35.9785 81.4523 41.9785 75.4523 41.9785 68.0148V54.5773H28.541C21.1035 54.5773 15.1035 60.5773 15.1035 68.0148C15.1035 75.4523 21.1035 81.4523 28.541 81.4523Z" fill="#0ACF83"/>
<path d="M15.1035 41.1398C15.1035 33.7023 21.1035 27.7023 28.541 27.7023H41.9785V54.5773H28.541C21.1035 54.5773 15.1035 48.5773 15.1035 41.1398Z" fill="#A259FF"/>
<path d="M15.1035 14.2648C15.1035 6.82727 21.1035 0.827271 28.541 0.827271H41.9785V27.7023H28.541C21.1035 27.7023 15.1035 21.7023 15.1035 14.2648Z" fill="#F24E1E"/>
<path d="M41.9785 0.827271H55.416C62.8535 0.827271 68.8535 6.82727 68.8535 14.2648C68.8535 21.7023 62.8535 27.7023 55.416 27.7023H41.9785V0.827271Z" fill="#FF7262"/>
<path d="M68.8535 41.1398C68.8535 48.5773 62.8535 54.5773 55.416 54.5773C47.9785 54.5773 41.9785 48.5773 41.9785 41.1398C41.9785 33.7023 47.9785 27.7023 55.416 27.7023C62.8535 27.7023 68.8535 33.7023 68.8535 41.1398Z" fill="#1ABCFE"/>
</g>
<defs>
<clipPath id="clip0_169_423">
<rect width="80" height="80" fill="white" transform="translate(0.103516 0.827271)"/>
</clipPath>
</defs>
</svg>
