<svg width="80" height="73" viewBox="0 0 80 73" fill="none" xmlns="http://www.w3.org/2000/svg">
<path d="M40 43.83C44.023 43.83 47.2843 40.5686 47.2843 36.5456C47.2843 32.5226 44.023 29.2613 40 29.2613C35.977 29.2613 32.7157 32.5226 32.7157 36.5456C32.7157 40.5686 35.977 43.83 40 43.83Z" fill="#61DAFB"/>
<path d="M67.6677 24.5328C66.262 24.0216 64.7923 23.5105 63.2588 23.0632C63.6422 21.5296 63.9617 19.9961 64.2173 18.5264C65.5591 10.0919 64.0895 4.14944 60 1.84912C58.7859 1.14624 57.4441 0.826752 55.9105 0.826752C51.4377 0.826752 45.7508 4.14944 40 9.70854C34.2492 4.14944 28.5623 0.826752 24.0895 0.826752C22.5559 0.826752 21.2141 1.14624 20 1.84912C15.9105 4.21333 14.4409 10.1558 15.7827 18.5264C16.0383 19.9961 16.3578 21.5296 16.7412 23.0632C15.2077 23.5105 13.738 23.9577 12.3323 24.5328C4.34505 27.5999 0 31.8172 0 36.5456C0 41.274 4.40895 45.4913 12.3323 48.5584C13.738 49.0696 15.2077 49.5807 16.7412 50.028C16.3578 51.5616 16.0383 53.0951 15.7827 54.5648C14.4409 62.9993 15.9105 68.9418 20 71.2421C21.2141 71.945 22.5559 72.2645 24.0895 72.2645C28.6262 72.2645 34.3131 68.9418 40 63.3827C45.7508 68.9418 51.4377 72.2645 55.9105 72.2645C57.4441 72.2645 58.7859 71.945 60 71.2421C64.0895 68.8779 65.5591 62.9354 64.2173 54.5648C63.9617 53.0951 63.6422 51.5616 63.2588 50.028C64.7923 49.5807 66.262 49.1335 67.6677 48.5584C75.655 45.4913 80 41.274 80 36.5456C80 31.8172 75.655 27.5999 67.6677 24.5328ZM58.2109 5.044C60.8307 6.57755 61.7252 11.306 60.639 18.0152C60.4473 19.3571 60.1278 20.7629 59.7444 22.2325C56.4217 21.4657 52.9073 20.9545 49.2013 20.6351C47.0288 17.568 44.7923 14.8204 42.5559 12.3283C47.2843 7.66381 52.0767 4.46892 55.9744 4.46892C56.8051 4.46892 57.5719 4.66062 58.2109 5.044ZM51.0543 42.9354C49.9042 44.9801 48.5623 47.0248 47.1565 49.0696C44.7923 49.2613 42.4281 49.3252 40 49.3252C37.508 49.3252 35.1438 49.2613 32.8434 49.0696C31.4377 47.0248 30.1597 44.9801 29.0096 42.9354C27.7955 40.8268 26.6454 38.6542 25.623 36.5456C26.6454 34.437 27.7955 32.2645 29.0096 30.1558C30.1597 28.1111 31.5016 26.0664 32.9073 24.0216C35.2716 23.8299 37.6358 23.7661 40.0639 23.7661C42.5559 23.7661 44.9201 23.8299 47.2204 24.0216C48.6262 26.0664 49.9042 28.1111 51.0543 30.1558C52.2684 32.2645 53.4185 34.437 54.4409 36.5456C53.3546 38.6542 52.2684 40.7629 51.0543 42.9354ZM56.3578 40.8268C57.3163 43.0632 58.0831 45.2357 58.7859 47.4082C56.6134 47.9194 54.3131 48.3028 51.885 48.6223C52.6518 47.4082 53.4824 46.1303 54.1853 44.7884C54.9521 43.4466 55.6549 42.1047 56.3578 40.8268ZM40 58.1431C38.4665 56.4817 36.9968 54.6926 35.5911 52.8395C37.0607 52.9034 38.5303 52.9673 40 52.9673C41.4696 52.9673 42.9393 52.9034 44.4089 52.8395C43.0032 54.6926 41.5335 56.4817 40 58.1431ZM28.115 48.5584C25.6869 48.2389 23.3866 47.8555 21.2141 47.3443C21.9169 45.2357 22.6837 42.9993 23.6422 40.7629C24.345 42.0408 25.0479 43.3827 25.8147 44.6606C26.5815 46.0664 27.3482 47.2804 28.115 48.5584ZM23.6422 32.2645C22.6837 30.028 21.9169 27.8555 21.2141 25.683C23.3866 25.1718 25.6869 24.7884 28.115 24.4689C27.3482 25.683 26.5176 26.9609 25.8147 28.3028C25.0479 29.6446 24.345 30.9865 23.6422 32.2645ZM40 14.9482C41.5335 16.6095 43.0032 18.3986 44.4089 20.2517C42.9393 20.1878 41.4696 20.1239 40 20.1239C38.5303 20.1239 37.0607 20.1878 35.5911 20.2517C36.9968 18.3986 38.4665 16.6095 40 14.9482ZM54.1853 28.3667L51.885 24.5328C54.3131 24.8523 56.6134 25.2357 58.7859 25.7469C58.0831 27.8555 57.3163 30.0919 56.3578 32.3284C55.6549 30.9865 54.9521 29.6446 54.1853 28.3667ZM19.361 18.0152C18.2748 11.306 19.1693 6.57755 21.7891 5.044C22.4281 4.66062 23.1949 4.46892 24.0256 4.46892C27.8594 4.46892 32.6518 7.59991 37.4441 12.3283C35.2077 14.7565 32.9712 17.568 30.7987 20.6351C27.0926 20.9545 23.5783 21.5296 20.2556 22.2325C19.8722 20.7629 19.6166 19.3571 19.361 18.0152ZM3.57827 36.5456C3.57827 33.5424 7.22045 30.3475 13.6102 27.9833C14.8882 27.4721 16.2939 27.0248 17.6997 26.6414C18.722 29.8363 20 33.2229 21.5335 36.6095C20 39.9961 18.6581 43.3188 17.6997 46.5137C8.88179 43.9577 3.57827 40.1239 3.57827 36.5456ZM21.7891 68.0472C19.1693 66.5137 18.2748 61.7852 19.361 55.076C19.5527 53.7341 19.8722 52.3284 20.2556 50.8587C23.5783 51.6255 27.0926 52.1367 30.7987 52.4561C32.9712 55.5232 35.2077 58.2708 37.4441 60.7629C32.7157 65.4274 27.9233 68.6223 24.0256 68.6223C23.1949 68.6223 22.4281 68.4306 21.7891 68.0472ZM60.639 55.076C61.7252 61.7852 60.8307 66.5137 58.2109 68.0472C57.5719 68.4306 56.8051 68.6223 55.9744 68.6223C52.1406 68.6223 47.3482 65.4913 42.5559 60.7629C44.7923 58.3347 47.0288 55.5232 49.2013 52.4561C52.9073 52.1367 56.4217 51.5616 59.7444 50.8587C60.1278 52.3284 60.3834 53.7341 60.639 55.076ZM66.3898 45.1079C65.1118 45.6191 63.7061 46.0664 62.3003 46.4498C61.278 43.2549 60 39.8683 58.4665 36.4817C60 33.0951 61.3419 29.7724 62.3003 26.5776C71.1182 29.1335 76.4217 32.9673 76.4217 36.5456C76.4217 39.5488 72.7157 42.7437 66.3898 45.1079Z" fill="#61DAFB"/>
</svg>
