<svg width="80" height="81" viewBox="0 0 80 81" fill="none" xmlns="http://www.w3.org/2000/svg">
<path d="M11.7587 72.1542L5.475 1.67227H74.525L68.235 72.1435L39.9581 79.9829L11.7587 72.1542Z" fill="#1572B6"/>
<path d="M40.0006 73.991L62.85 67.656L68.2256 7.43477H40.0006V73.991Z" fill="#33A9DC"/>
<path d="M40.0006 32.9704H51.4394L52.2294 24.1185H40.0006V15.4742H61.6769L61.4694 17.7935L59.3444 41.6148H40.0006V32.9704Z" fill="white"/>
<path d="M40.0519 55.4204L40.0138 55.4316L30.3869 52.8323L29.7713 45.9379H21.095L22.3056 59.511L40.0125 64.4254L40.0519 64.4141V55.4204Z" fill="#EBEBEB"/>
<path d="M50.7044 41.2491L49.6631 52.8254L40.0219 55.4279V64.4216L57.7431 59.5104L57.8731 58.0498L59.3769 41.2491H50.7044Z" fill="white"/>
<path d="M40.03 15.4742V24.1185H19.15L18.9769 22.176L18.5831 17.7935L18.3763 15.4742H40.03ZM40.0006 32.9717V41.616H30.495L30.3219 39.6735L29.9275 35.291L29.7213 32.9717H40.0006Z" fill="#EBEBEB"/>
</svg>
