<svg width="33" height="33" viewBox="0 0 33 33" fill="none" xmlns="http://www.w3.org/2000/svg">
<g clip-path="url(#clip0_169_581)">
<path opacity="0.35" d="M8.54798 2.1006H26.1333C26.8693 2.1006 27.4666 2.69793 27.4666 3.43393V11.4339C27.4666 12.1699 26.8693 12.7673 26.1333 12.7673H16.8L7.83998 3.80727C7.21065 3.17793 7.65598 2.1006 8.54798 2.1006Z" fill="black"/>
<path d="M7.46666 12.7673H16.8L25.76 21.7273C26.3893 22.3566 25.944 23.4339 25.0533 23.4339H7.46666C6.73066 23.4339 6.13333 22.8366 6.13333 22.1006V14.1006C6.13333 13.3646 6.73066 12.7673 7.46666 12.7673Z" fill="black"/>
<path opacity="0.35" d="M6.13333 14.1006V22.1086C6.13333 22.9579 6.47066 23.7713 7.07066 24.3713L15.0933 32.3939C15.7227 33.0233 16.8 32.5779 16.8 31.6873V12.7673H7.46666C6.73066 12.7673 6.13333 13.3646 6.13333 14.1006Z" fill="black"/>
</g>
<defs>
<clipPath id="clip0_169_581">
<rect width="32" height="32" fill="white" transform="translate(0.799988 0.767273)"/>
</clipPath>
</defs>
</svg>
