<svg width="80" height="91" viewBox="0 0 80 91" fill="none" xmlns="http://www.w3.org/2000/svg">
<path d="M76.8381 20.4522L43.8684 1.30827C41.7892 0.123969 39.0819 0.123969 36.9862 1.30827L3.6643 20.4522C1.5185 21.6866 0 24.0066 0 26.4881V64.7251C0 67.2066 1.55813 69.5273 3.70393 70.7685L12.5077 75.7688C16.7155 77.8414 18.2026 77.8414 20.1174 77.8414C26.3477 77.8414 29.9065 74.0739 29.9065 67.5027V29.7531C29.9065 29.22 29.6292 28.4268 29.1058 28.4268H24.9017C24.3693 28.4268 23.1776 29.22 23.1776 29.7524V67.5019C23.1776 70.4148 20.5428 73.3135 15.6187 70.8514L6.52187 65.6081C6.20486 65.4361 5.98131 65.09 5.98131 64.7251V26.4881C5.98131 26.1277 6.39626 25.7658 6.71551 25.5812L39.9297 6.47014C40.24 6.29444 40.6961 6.29444 41.0056 6.47014L73.8146 25.5767C74.1286 25.7658 74.0179 26.1165 74.0179 26.4881V64.7251C74.0179 65.09 74.1548 65.4451 73.8445 65.6208L40.883 84.743C40.6004 84.9128 40.2497 84.9128 39.9402 84.743L31.4864 79.6971C31.2314 79.549 30.9286 79.4959 30.6841 79.6328C28.332 80.9658 27.8983 81.143 25.692 81.9079C25.1492 82.0971 24.3484 82.4253 25.9985 83.3501L37.0624 89.8952C38.1187 90.5053 39.317 90.8266 40.5368 90.8268C41.7645 90.8268 42.9667 90.5083 44.0262 89.8952L76.8374 70.7685C78.9832 69.5184 80 67.2066 80 64.7251V26.4881C80 24.0066 78.9832 21.6926 76.8381 20.4522ZM50.7738 58.666C42.0067 58.666 40.0755 56.2473 39.4318 51.8877C39.357 51.4182 38.9585 50.8567 38.4807 50.8567H34.1959C33.6658 50.8567 33.2396 51.4997 33.2396 52.0275C33.2396 57.6096 36.2744 64.3729 50.7746 64.3729C61.271 64.3729 67.289 60.2944 67.289 53.0765C67.289 45.9199 62.4538 44.0417 52.2744 42.6944C41.985 41.3344 40.9398 40.6473 40.9398 38.2369C40.9398 36.2496 41.825 33.5991 49.4437 33.5991C56.2512 33.5991 58.7604 35.06 59.7929 39.6485C59.8811 40.0799 60.2751 40.3894 60.72 40.3894H65.0221C65.2867 40.3894 65.5394 40.2825 65.7249 40.0933C65.9043 39.8899 65.9993 39.635 65.9753 39.3614C65.3092 31.46 60.0598 27.7778 49.443 27.7778C39.9993 27.7778 34.3656 31.7658 34.3656 38.4507C34.3656 45.7015 39.9708 47.7053 49.0363 48.6017C59.8811 49.6649 60.7245 51.25 60.7245 53.383C60.7245 57.0877 57.7503 58.666 50.7738 58.666Z" fill="#83CD29"/>
</svg>
