<svg width="80" height="82" viewBox="0 0 80 82" fill="none" xmlns="http://www.w3.org/2000/svg">
<path d="M75.817 36.5843C73.7255 36.5843 71.9826 38.0657 71.5468 40.0701H67.1024C66.9281 33.2727 64.1394 27.0854 59.7821 22.4666L62.9194 19.3294C63.7037 19.7651 64.488 20.0265 65.3595 20.0265C66.4924 20.0265 67.6253 19.5908 68.4096 18.7193C70.0654 17.0636 70.0654 14.2749 68.4096 12.532C66.7538 10.8762 63.9651 10.8762 62.2222 12.532C60.7407 14.0135 60.5664 16.3664 61.6993 18.0222L58.5621 21.1594C53.9434 16.8021 47.756 14.1006 40.9586 13.8392V9.39472C42.963 8.95899 44.4444 7.21607 44.4444 5.12457C44.4444 2.68448 42.5272 0.767273 40.0871 0.767273C37.6471 0.767273 35.7298 2.68448 35.7298 5.12457C35.7298 7.21607 37.2113 8.95899 39.2157 9.39472V13.9263C32.4183 14.1006 26.2309 16.8893 21.6122 21.2466L18.4749 18.1093C19.6078 16.4535 19.4336 14.1006 17.9521 12.6191C16.2963 10.9634 13.5076 10.9634 11.7647 12.6191C10.1089 14.2749 10.1089 17.0636 11.7647 18.8065C12.6362 19.6779 13.7691 20.1137 14.8148 20.1137C15.6863 20.1137 16.4706 19.8522 17.2549 19.4165L20.3922 22.5538C16.0349 27.1725 13.3333 33.3599 13.0719 40.1572H8.62745C8.19172 38.1529 6.4488 36.6714 4.3573 36.6714C1.91721 36.6714 0 38.5886 0 41.0287C0 43.4688 1.91721 45.386 4.3573 45.386C6.4488 45.386 8.19172 43.9045 8.62745 41.9002H13.0719C13.2462 48.6976 16.0349 54.8849 20.3922 59.5037L17.2549 62.6409C15.5991 61.508 13.2462 61.6823 11.7647 63.1638C10.1089 64.8196 10.1089 67.6082 11.7647 69.3511C12.6362 70.2226 13.7691 70.6583 14.8148 70.6583C15.9477 70.6583 17.0806 70.2226 17.8649 69.3511C19.3464 67.8697 19.5207 65.5167 18.3878 63.861L21.5251 60.7237C26.1438 65.081 32.3312 67.7825 39.1285 68.044V72.4884C37.1242 72.9241 35.6427 74.6671 35.6427 76.7586C35.6427 79.1986 37.5599 81.1159 40 81.1159C42.4401 81.1159 44.3573 79.1986 44.3573 76.7586C44.3573 74.6671 42.8758 72.9241 40.8715 72.4884V67.9568C47.6688 67.7825 53.8562 64.9939 58.4749 60.6366L61.6122 63.7738C60.4793 65.4296 60.6536 67.7825 62.1351 69.264C63.0065 70.1355 64.1394 70.5712 65.1852 70.5712C66.3181 70.5712 67.451 70.1355 68.2353 69.264C69.8911 67.6082 69.8911 64.8196 68.2353 63.0766C66.7538 61.5952 64.4009 61.4209 62.7451 62.5538L59.6078 59.4165C63.9651 54.7978 66.6667 48.6104 66.9281 41.813H71.3726C71.8083 43.8174 73.5512 45.2989 75.6427 45.2989C78.0828 45.2989 80 43.3816 80 40.9416C80 38.5015 78.2571 36.5843 75.817 36.5843ZM40.9586 66.1267V54.8849C44.3573 54.7978 47.5817 54.4492 50.5447 53.8392C48.5403 60.7237 44.9673 65.5167 40.9586 66.1267ZM39.2157 15.7564V26.9982C35.817 27.0854 32.5926 27.4339 29.6296 28.044C31.634 21.1594 35.207 16.3664 39.2157 15.7564ZM54.0305 40.0701C53.9434 36.6714 53.5948 33.447 52.9847 30.484C59.8693 32.4884 64.6623 36.0614 65.2723 40.0701H54.0305ZM45.0545 45.8217C43.7473 47.1289 42.0044 47.9132 40.0871 47.9132C38.1699 47.9132 36.427 47.1289 35.207 45.9089C33.8998 44.6017 33.1155 42.8588 33.1155 40.9416C33.1155 39.0243 33.8998 37.2814 35.1198 36.0614C36.3399 34.8413 38.0828 34.057 40 34.057C41.9172 34.057 43.6601 34.8413 44.8802 36.0614C46.1002 37.2814 46.8845 39.0243 46.8845 40.9416C46.8845 42.8588 46.2745 44.6017 45.0545 45.8217ZM45.5773 34.2313C44.2701 33.1856 42.7015 32.4884 40.9586 32.3141V28.8283C44.183 28.9154 47.2331 29.264 50.0218 29.874L45.5773 34.2313ZM39.2157 32.3141C37.4728 32.4884 35.9041 33.1856 34.597 34.2313L30.1525 29.7869C32.9412 29.1769 35.9913 28.8283 39.2157 28.7411V32.3141ZM33.3769 35.4514C32.3312 36.7586 31.634 38.3272 31.4597 40.0701H27.9739C28.061 36.8457 28.4096 33.7956 29.0196 31.0069L33.3769 35.4514ZM31.4597 41.813C31.634 43.5559 32.3312 45.1246 33.3769 46.4318L28.9325 50.8762C28.3224 48.0875 27.9739 45.0374 27.8867 41.813H31.4597ZM34.597 47.6518C35.9041 48.6976 37.4728 49.3947 39.2157 49.569V53.0549C35.9913 52.9677 32.9412 52.6191 30.1525 52.0091L34.597 47.6518ZM40.9586 49.569C42.7015 49.3947 44.2701 48.6976 45.5773 47.6518L50.0218 52.0962C47.2331 52.7063 44.183 53.0549 40.9586 53.142V49.569ZM46.7974 46.4318C47.8431 45.1246 48.5403 43.5559 48.7146 41.813H52.2004C52.1133 45.0374 51.7647 48.0875 51.1547 50.8762L46.7974 46.4318ZM48.7146 40.0701C48.5403 38.3272 47.8431 36.7586 46.7974 35.4514L51.2418 31.0069C51.8518 33.7956 52.2004 36.8457 52.2876 40.0701H48.7146ZM40.9586 26.9982V15.7564C44.9673 16.3664 48.5403 21.1594 50.5447 28.044C47.5817 27.4339 44.3573 27.0854 40.9586 26.9982ZM26.1438 40.0701H14.902C15.512 36.0614 20.305 32.4884 27.1895 30.484C26.5795 33.447 26.2309 36.6714 26.1438 40.0701ZM26.1438 41.813C26.2309 45.2117 26.5795 48.4361 27.1895 51.3991C20.305 49.3947 15.512 45.8217 14.902 41.813H26.1438ZM39.2157 54.8849V66.1267C35.207 65.5167 31.634 60.7237 29.6296 53.8392C32.5926 54.4492 35.817 54.7978 39.2157 54.8849ZM54.0305 41.813H65.2723C64.6623 45.8217 59.8693 49.3947 52.9847 51.3991C53.5948 48.4361 53.9434 45.2117 54.0305 41.813ZM53.5076 28.7411L58.5621 23.6867C61.5251 26.8239 63.6166 30.7455 64.6623 35.0156C62.3094 32.4013 58.3878 30.2226 53.5076 28.7411ZM52.2876 27.5211C50.8932 22.6409 48.7146 18.7193 46.0131 16.3664C50.3704 17.4122 54.2048 19.5037 57.342 22.4666L52.2876 27.5211ZM27.8867 27.5211L22.8322 22.4666C25.9695 19.5037 29.8911 17.4122 34.1612 16.3664C31.5468 18.7193 29.3682 22.6409 27.8867 27.5211ZM21.6122 23.6867L26.6667 28.7411C21.7865 30.1355 17.8649 32.3141 15.512 35.0156C16.5577 30.7455 18.6492 26.8239 21.6122 23.6867ZM26.6667 53.142L21.6122 58.1965C18.6492 55.0592 16.5577 51.1376 15.512 46.8675C17.8649 49.4819 21.7865 51.6605 26.6667 53.142ZM27.8867 54.362C29.281 59.2422 31.4597 63.1638 34.1612 65.5167C29.8039 64.471 25.9695 62.3795 22.8322 59.4165L27.8867 54.362ZM52.2876 54.362L57.342 59.4165C54.2048 62.3795 50.2832 64.471 46.0131 65.5167C48.6274 63.1638 50.8061 59.2422 52.2876 54.362ZM58.5621 58.1965L53.5076 53.142C58.3878 51.7477 62.3094 49.569 64.6623 46.8675C63.6166 51.1376 61.5251 55.0592 58.5621 58.1965ZM63.5294 13.8392C64.0523 13.3163 64.7495 13.0549 65.3595 13.0549C66.0566 13.0549 66.6667 13.3163 67.1895 13.8392C68.2353 14.8849 68.2353 16.5407 67.1895 17.4993C66.1438 18.5451 64.488 18.5451 63.5294 17.4993C62.4837 16.5407 62.4837 14.7978 63.5294 13.8392ZM37.4728 5.21172C37.4728 3.73024 38.6057 2.59734 40.0871 2.59734C41.5686 2.59734 42.7015 3.73024 42.7015 5.21172C42.7015 6.6932 41.5686 7.8261 40.0871 7.8261C38.6057 7.8261 37.4728 6.6932 37.4728 5.21172ZM12.9847 17.4993C11.939 16.4535 11.939 14.7978 12.9847 13.8392C13.5076 13.3163 14.2048 13.0549 14.8148 13.0549C15.512 13.0549 16.122 13.3163 16.6449 13.8392C17.6906 14.8849 17.6906 16.5407 16.6449 17.4993C15.6863 18.5451 13.9434 18.5451 12.9847 17.4993ZM4.3573 43.5559C2.87582 43.5559 1.74292 42.423 1.74292 40.9416C1.74292 39.4601 2.87582 38.3272 4.3573 38.3272C5.83878 38.3272 6.97168 39.4601 6.97168 40.9416C6.97168 42.423 5.83878 43.5559 4.3573 43.5559ZM16.6449 68.044C15.5991 69.0897 13.9434 69.0897 12.9847 68.044C11.939 66.9982 11.939 65.3424 12.9847 64.3838C14.0305 63.3381 15.6863 63.3381 16.6449 64.3838C17.6906 65.3424 17.6906 67.0854 16.6449 68.044ZM42.7015 76.6714C42.7015 78.1529 41.5686 79.2858 40.0871 79.2858C38.6057 79.2858 37.4728 78.1529 37.4728 76.6714C37.4728 75.1899 38.6057 74.057 40.0871 74.057C41.5686 74.057 42.7015 75.1899 42.7015 76.6714ZM67.1895 64.3838C68.2353 65.4296 68.2353 67.0854 67.1895 68.044C66.1438 69.0897 64.488 69.0897 63.5294 68.044C62.4837 66.9982 62.4837 65.3424 63.5294 64.3838C64.488 63.3381 66.2309 63.3381 67.1895 64.3838ZM75.817 43.5559C74.3355 43.5559 73.2026 42.423 73.2026 40.9416C73.2026 39.4601 74.3355 38.3272 75.817 38.3272C77.2985 38.3272 78.4314 39.4601 78.4314 40.9416C78.4314 42.423 77.2985 43.5559 75.817 43.5559Z" fill="black"/>
</svg>
