<svg width="80" height="77" viewBox="0 0 80 77" fill="none" xmlns="http://www.w3.org/2000/svg">
<path d="M55.431 53.8719C49.8058 65.3722 39.9556 73.1099 26.924 75.6537C24.9259 76.1432 22.8747 76.3826 20.8176 76.3662C13.3174 76.3662 6.4422 73.2411 3.10461 68.1223C-1.37675 61.3033 -2.90179 46.8467 11.8736 36.1527C12.1736 37.784 12.7861 40.0215 13.1924 41.3466C10.2919 43.5014 7.91772 46.2859 6.24844 49.4905C3.49837 54.8907 3.80463 60.2845 7.06097 65.2722C9.31102 68.6348 12.8736 70.6786 17.455 71.3036C23.1772 72.0279 28.9824 70.9346 34.0492 68.1785C41.9931 64.0034 47.287 59.0158 50.7496 52.1968C49.7705 51.185 49.191 49.8528 49.1183 48.4467C49.066 46.9379 49.6144 45.4699 50.6432 44.3649C51.672 43.2599 53.0972 42.6082 54.606 42.5528H54.8185C56.286 42.5455 57.7001 43.1026 58.7684 44.1088C59.8366 45.115 60.4771 46.4934 60.5574 47.9588C60.6377 49.4241 60.1516 50.8642 59.1997 51.9812C58.2479 53.0981 56.903 53.8063 55.4435 53.9594L55.431 53.8719ZM73.3502 41.2466C80.9816 49.8968 81.1879 60.0783 78.2378 65.9847C75.4877 71.3786 68.2376 76.7787 58.4873 76.7787C53.9357 76.6859 49.4581 75.6091 45.362 73.6224C46.7932 72.6036 48.8246 70.9723 49.9433 69.9535C53.1021 71.322 56.5014 72.0486 59.9436 72.0911C66.2563 72.0911 71.0376 69.141 73.8877 63.7471C75.719 60.1845 75.8252 56.0094 74.094 51.7343C71.9696 46.3553 68.1893 41.7915 63.2999 38.7027C56.8852 34.3785 49.323 32.0733 41.5869 32.0838H39.7556C39.3285 33.0703 38.6338 33.9174 37.7501 34.5294C36.8664 35.1413 35.829 35.4936 34.7554 35.5464H34.5617C33.0767 35.5281 31.6574 34.9317 30.6052 33.8838C29.5529 32.8359 28.9506 31.4191 28.9262 29.9342C28.9018 28.4494 29.4572 27.0135 30.4744 25.9316C31.4917 24.8496 32.8906 24.2069 34.3742 24.1399H34.5804C35.6142 24.1406 36.6278 24.4263 37.5099 24.9655C38.392 25.5046 39.1085 26.2765 39.5806 27.1962H41.2119C54.2122 27.1962 65.625 32.1838 73.3502 41.2466ZM21.6301 55.6219C21.5231 54.584 21.7745 53.5408 22.3426 52.6656C16.6425 42.7903 13.5924 30.2713 18.2738 17.2397C21.6301 7.44567 30.0803 0.826752 39.243 0.826752C49.0183 0.826752 59.1998 9.38322 60.4186 25.8712C58.8936 25.3649 56.6685 24.6211 55.331 24.3461C54.9997 18.9522 50.4433 5.51437 39.6493 5.71438C35.7805 5.82063 30.0803 7.65193 27.149 11.4145C23.523 15.906 21.4137 21.431 21.1238 27.1962C20.4368 35.1012 22.2914 43.0192 26.4177 49.7968C26.6455 49.7135 26.8883 49.6795 27.1302 49.6968H27.3302C28.842 49.6694 30.3027 50.2437 31.3911 51.2934C32.4794 52.343 33.1062 53.782 33.1335 55.2938C33.1609 56.8056 32.5865 58.2663 31.5369 59.3546C30.4873 60.4429 29.0483 61.0697 27.5365 61.0971H27.3302C25.8554 61.0918 24.4395 60.5176 23.3775 59.4941C22.3156 58.4706 21.6897 57.0768 21.6301 55.6032V55.6219Z" fill="#764ABC"/>
</svg>
