<svg width="80" height="80" viewBox="0 0 80 80" fill="none" xmlns="http://www.w3.org/2000/svg">
<g clip-path="url(#clip0_169_432)">
<path d="M0.879997 0.880005H79.12V79.1206H0.879997V0.880005Z" fill="#F0DB4F"/>
<path d="M72.7169 60.46C72.1437 56.8906 69.8163 53.8925 62.9219 51.0969C60.5269 49.9962 57.8569 49.2081 57.0612 47.3931C56.7787 46.3369 56.7412 45.7419 56.92 45.1025C57.4331 43.0275 59.91 42.3806 61.8731 42.9756C63.1375 43.3994 64.3344 44.3737 65.0562 45.9281C68.4325 43.7419 68.4256 43.7562 70.7831 42.2537C69.92 40.9156 69.4594 40.2981 68.8944 39.7256C66.8638 37.4575 64.0969 36.2894 59.6719 36.3787L57.3669 36.6769C55.1581 37.235 53.0531 38.3944 51.8188 39.9487C48.115 44.1512 49.1712 51.5062 53.6781 54.5331C58.1181 57.8656 64.6406 58.6237 65.4737 61.74C66.2844 65.555 62.67 66.79 59.0775 66.3512C56.43 65.8006 54.9575 64.455 53.3656 62.0081C50.4356 63.7037 50.4356 63.7037 47.4231 65.4362C48.1375 66.9981 48.8881 67.705 50.0856 69.0581C55.7531 74.8069 69.9356 74.5244 72.4794 65.8231C72.5825 65.5244 73.2675 63.5319 72.7169 60.46ZM43.4137 36.8394H36.0956L36.0656 55.7594C36.0656 59.7831 36.2737 63.4719 35.6194 64.6025C34.5487 66.8262 31.7744 66.5506 30.51 66.1194C29.2231 65.4869 28.5687 64.5875 27.8106 63.3162C27.6025 62.9512 27.4462 62.6687 27.3937 62.6469L21.4437 66.2906C22.4331 68.3212 23.8906 70.0837 25.7575 71.2287C28.5462 72.9025 32.2944 73.4156 36.2144 72.5156C38.7656 71.7725 40.9669 70.2331 42.1194 67.89C43.7856 64.8181 43.4281 61.1 43.4131 56.9875C43.4506 50.2781 43.4137 43.57 43.4137 36.8394Z" fill="#323330"/>
</g>
<defs>
<clipPath id="clip0_169_432">
<rect width="80" height="80" fill="white"/>
</clipPath>
</defs>
</svg>
