<svg width="21" height="22" viewBox="0 0 21 22" fill="none" xmlns="http://www.w3.org/2000/svg">
<path d="M18.75 0.776123H2.25C1.00734 0.776123 0 1.78347 0 3.02612V19.5261C0 20.7688 1.00734 21.7761 2.25 21.7761H18.75C19.9927 21.7761 21 20.7688 21 19.5261V3.02612C21 1.78347 19.9927 0.776123 18.75 0.776123ZM8.34923 11.5622C4.09823 8.47708 4.14155 8.4693 3 7.58083V6.40112C3 5.77979 3.50367 5.27612 4.125 5.27612H16.875C17.4963 5.27612 18 5.77979 18 6.40112V7.58083C16.8576 8.47 16.9015 8.47726 12.6508 11.5623C12.1586 11.9211 11.1793 12.7867 10.5 12.7761C9.82017 12.7863 8.84217 11.9217 8.34923 11.5622ZM18 9.48433V16.1511C18 16.7725 17.4963 17.2761 16.875 17.2761H4.125C3.50367 17.2761 3 16.7725 3 16.1511V9.48433C3.65428 9.99029 4.5623 10.6673 7.46733 12.7756C8.13117 13.2603 9.24741 14.2824 10.4999 14.2761C11.7602 14.2824 12.8922 13.2429 13.5336 12.7749C16.4379 10.6672 17.3457 9.99025 18 9.48433Z" fill="black"/>
</svg>
