<svg width="81" height="48" viewBox="0 0 81 48" fill="none" xmlns="http://www.w3.org/2000/svg">
<path d="M80.1035 46.0305C77.1937 46.7707 75.3943 46.0624 73.7798 43.6376C70.1554 38.2072 66.1544 33.0258 62.2938 27.7486C61.7961 27.0658 61.2792 26.3958 60.6347 25.5471C56.0659 31.7113 51.5034 37.5819 47.2216 43.6886C45.6902 45.871 44.0821 46.8217 41.2234 46.0496L58.4014 22.9947L42.4103 2.1731C45.1605 1.63709 47.0621 1.91148 48.7467 4.37458C52.4669 9.81129 56.57 14.9864 60.6603 20.4614C64.7761 15.0055 68.8281 9.82405 72.6568 4.43839C74.1946 2.25605 75.8473 1.42651 78.6103 2.23053C76.5173 5.00631 74.469 7.73743 72.4079 10.4494C69.6257 14.1058 66.8946 17.8068 64.0104 21.3866C62.983 22.6629 63.1489 23.4924 64.0678 24.6984C69.4024 31.7113 74.6732 38.7943 80.1035 46.0305ZM0.122659 22.6118C0.582099 20.3082 0.888392 17.96 1.5265 15.7011C5.35517 2.02633 21.0527 -3.65924 31.8368 4.81488C38.1541 9.78577 39.7238 16.7922 39.4112 24.692H3.80456C3.26855 38.8645 13.4719 47.4216 26.4767 43.0569C31.0392 41.5254 33.7256 37.952 35.072 33.4852C35.7548 31.2454 36.8842 30.8945 38.99 31.5326C37.9116 37.1225 35.4676 41.7934 30.3628 44.716C22.7054 49.0934 11.7746 47.6768 6.02519 41.5956C2.63044 38.0222 1.1883 33.5746 0.550194 28.7696C0.454477 28.0038 0.256662 27.2509 0.103516 26.4915C0.116278 25.1983 0.122659 23.905 0.122659 22.6118ZM3.86837 21.661H36.0483C35.8377 11.413 29.4566 4.1321 20.7337 4.06829C11.162 3.99172 4.28314 11.1003 3.86837 21.661Z" fill="black"/>
</svg>
