<svg width="81" height="81" viewBox="0 0 81 81" fill="none" xmlns="http://www.w3.org/2000/svg">
<path d="M78.0173 13.0268L42.116 77.2255C41.3741 78.5511 39.4698 78.5586 38.7179 77.2405L2.10413 13.0343C1.28351 11.5955 2.51163 9.85488 4.14226 10.1455L40.0823 16.5686C40.3116 16.6105 40.5466 16.6105 40.776 16.5686L75.9635 10.1555C77.5872 9.85988 78.8229 11.5861 78.0173 13.0268Z" fill="url(#paint0_linear_169_417)"/>
<path d="M57.201 1.72049L30.6348 6.9255C30.4227 6.96693 30.2304 7.07762 30.0881 7.24018C29.9458 7.40274 29.8615 7.60796 29.8485 7.82362L28.2129 35.4286C28.2041 35.58 28.2307 35.7314 28.2905 35.8707C28.3503 36.01 28.4418 36.1335 28.5576 36.2314C28.6734 36.3293 28.8104 36.3988 28.9578 36.4346C29.1052 36.4703 29.2588 36.4713 29.4066 36.4374L36.8041 34.728C36.9635 34.6914 37.1294 34.6954 37.2868 34.7396C37.4442 34.7838 37.5879 34.8668 37.7049 34.981C37.8218 35.0952 37.9082 35.237 37.9561 35.3933C38.0041 35.5495 38.012 35.7154 37.9791 35.8755L35.781 46.6374C35.7474 46.803 35.7574 46.9745 35.81 47.1352C35.8626 47.2958 35.9559 47.44 36.081 47.5537C36.206 47.6674 36.3585 47.7467 36.5233 47.7838C36.6882 47.821 36.8599 47.8146 37.0216 47.7655L41.5891 46.3761C42.2973 46.1611 42.9785 46.7836 42.8298 47.5086L39.336 64.413C39.1185 65.4705 40.5248 66.0467 41.111 65.1405L41.5016 64.5355L63.1516 21.3292C63.5154 20.6042 62.8885 19.7792 62.0954 19.933L54.4798 21.403C54.3159 21.4348 54.1466 21.424 53.9881 21.3715C53.8296 21.3191 53.6873 21.2268 53.5747 21.1035C53.4622 20.9801 53.3833 20.83 53.3455 20.6674C53.3078 20.5047 53.3125 20.3352 53.3591 20.1749L58.3279 2.94862C58.3746 2.78777 58.3791 2.6176 58.3409 2.45452C58.3028 2.29143 58.2232 2.14093 58.11 2.01751C57.9967 1.8941 57.8536 1.80194 57.6944 1.74991C57.5352 1.69789 57.3653 1.68776 57.201 1.72049Z" fill="url(#paint1_linear_169_417)"/>
<defs>
<linearGradient id="paint0_linear_169_417" x1="1.20926" y1="7.8515" x2="45.8929" y2="68.5354" gradientUnits="userSpaceOnUse">
<stop stop-color="#41D1FF"/>
<stop offset="1" stop-color="#BD34FE"/>
</linearGradient>
<linearGradient id="paint1_linear_169_417" x1="38.0198" y1="3.13298" x2="46.1028" y2="58.5819" gradientUnits="userSpaceOnUse">
<stop stop-color="#FFEA83"/>
<stop offset="0.083" stop-color="#FFDD35"/>
<stop offset="1" stop-color="#FFA800"/>
</linearGradient>
</defs>
</svg>
