<svg width="80" height="81" viewBox="0 0 80 81" fill="none" xmlns="http://www.w3.org/2000/svg">
<path d="M78.4908 37.2124L43.5619 2.28473C41.5517 0.273254 38.2892 0.273254 36.2758 2.28473L29.0233 9.53847L38.2239 18.739C40.3628 18.0172 42.814 18.5014 44.5182 20.2055C46.2312 21.9204 46.7115 24.3926 45.972 26.5384L54.8392 35.4063C56.9844 34.6667 59.4604 35.1446 61.1727 36.8607C63.5683 39.2543 63.5683 43.1347 61.1727 45.5296C60.6035 46.0991 59.9276 46.5509 59.1836 46.8592C58.4397 47.1675 57.6423 47.3261 56.837 47.3261C56.0318 47.3261 55.2344 47.1675 54.4905 46.8592C53.7465 46.5509 53.0706 46.0991 52.5013 45.5296C51.646 44.6738 51.063 43.5841 50.8256 42.3976C50.5883 41.2112 50.7071 39.9811 51.1673 38.8621L42.8983 30.5931L42.8971 52.3562C43.497 52.6516 44.0448 53.0429 44.5188 53.5147C46.9131 55.9083 46.9131 59.7874 44.5188 62.1861C42.1239 64.5797 38.2423 64.5797 35.8499 62.1861C33.4557 59.788 33.4557 55.9089 35.8499 53.5147C36.4235 52.9401 37.1058 52.4856 37.857 52.1775V30.2128C37.1052 29.9056 36.4227 29.4507 35.8499 28.875C34.0362 27.0625 33.5995 24.4008 34.5299 22.1726L25.4592 13.102L1.50905 37.0508C0.542806 38.0174 0 39.3281 0 40.6948C0 42.0615 0.542806 43.3723 1.50905 44.3388L36.4387 79.2665C38.4501 81.278 41.7113 81.278 43.726 79.2665L78.4915 44.501C79.4575 43.5342 80.0001 42.2234 80 40.8566C79.9999 39.4899 79.4571 38.1791 78.4908 37.2124Z" fill="#F34F29"/>
</svg>
