<svg width="80" height="81" viewBox="0 0 80 81" fill="none" xmlns="http://www.w3.org/2000/svg">
<path d="M61.1897 5.49625C61.9 4.31228 63.4357 3.92838 64.6197 4.63875L63.3333 6.78248C64.6197 4.63875 64.6183 4.63808 64.6197 4.63875L64.6243 4.64155L64.6293 4.64472L64.6417 4.65222L64.6737 4.67195C64.6983 4.68718 64.729 4.70665 64.7657 4.73038C64.839 4.77782 64.936 4.84242 65.0533 4.92452C65.2877 5.08858 65.6043 5.32358 65.9753 5.63278C66.7157 6.24972 67.684 7.17138 68.6483 8.42488C70.591 10.9507 72.5 14.807 72.5 20.1158C72.5 25.4247 70.591 29.281 68.6483 31.8067C67.684 33.0602 66.7157 33.9819 65.9753 34.5989C65.6043 34.9082 65.2877 35.1432 65.0533 35.3072C64.936 35.3892 64.839 35.4538 64.7657 35.5012C64.729 35.5248 64.6983 35.5445 64.6737 35.5598L64.6417 35.5795L64.6293 35.5869L64.6243 35.5902C64.623 35.5908 64.6197 35.5929 63.3333 33.4492L64.6197 35.5928C63.4357 36.3032 61.9 35.9192 61.1897 34.7355C60.4823 33.5565 60.86 32.0287 62.0323 31.3145L62.0507 31.3027C62.075 31.287 62.121 31.2565 62.186 31.211C62.3163 31.1198 62.5207 30.9694 62.7747 30.7578C63.2843 30.333 63.9827 29.6714 64.685 28.7582C66.0757 26.9506 67.5 24.1403 67.5 20.1158C67.5 16.0913 66.0757 13.281 64.685 11.4734C63.9827 10.5602 63.2843 9.89858 62.7747 9.47388C62.5207 9.26222 62.3163 9.11182 62.186 9.02068C62.121 8.97518 62.075 8.94472 62.0507 8.92898L62.0323 8.91722C60.86 8.20295 60.4823 6.67522 61.1897 5.49625Z" fill="#1C274C"/>
<path fill-rule="evenodd" clip-rule="evenodd" d="M33.3333 4.28247C24.5888 4.28247 17.5 11.3713 17.5 20.1158C17.5 28.8603 24.5888 35.9492 33.3333 35.9492C42.078 35.9492 49.1667 28.8603 49.1667 20.1158C49.1667 11.3713 42.078 4.28247 33.3333 4.28247ZM22.5 20.1158C22.5 14.1327 27.3502 9.28247 33.3333 9.28247C39.3163 9.28247 44.1667 14.1327 44.1667 20.1158C44.1667 26.0989 39.3163 30.9491 33.3333 30.9491C27.3502 30.9491 22.5 26.0989 22.5 20.1158Z" fill="#1C274C"/>
<path fill-rule="evenodd" clip-rule="evenodd" d="M33.3333 40.9492C26.5356 40.9492 20.2584 42.5182 15.5938 45.1839C11 47.8089 7.5 51.8162 7.5 56.7825C7.5 61.7489 11 65.7562 15.5938 68.3812C20.2584 71.0465 26.5356 72.6159 33.3333 72.6159C40.131 72.6159 46.4083 71.0465 51.073 68.3812C55.6667 65.7562 59.1667 61.7489 59.1667 56.7825C59.1667 51.8162 55.6667 47.8089 51.073 45.1839C46.4083 42.5182 40.131 40.9492 33.3333 40.9492ZM12.5 56.7825C12.5 54.3849 14.2234 51.7255 18.0745 49.5249C21.855 47.3649 27.2445 45.9492 33.3333 45.9492C39.4223 45.9492 44.8117 47.3649 48.592 49.5249C52.4433 51.7255 54.1667 54.3849 54.1667 56.7825C54.1667 59.1802 52.4433 61.8392 48.592 64.0399C44.8117 66.2002 39.4223 67.6159 33.3333 67.6159C27.2445 67.6159 21.855 66.2002 18.0745 64.0399C14.2234 61.8392 12.5 59.1802 12.5 56.7825Z" fill="#1C274C"/>
<path d="M57.953 11.3054C56.769 10.595 55.2333 10.9789 54.523 12.1629L55.3503 15.5745L55.3763 15.5923C55.4153 15.6196 55.4893 15.6737 55.587 15.7551C55.7843 15.9194 56.066 16.1852 56.3517 16.5567C56.909 17.281 57.5 18.4246 57.5 20.1158C57.5 21.807 56.909 22.9506 56.3517 23.6749C56.066 24.0464 55.7843 24.3122 55.587 24.4765C55.4893 24.5579 55.4153 24.612 55.3763 24.6393L55.3503 24.6571C54.19 25.3752 53.8187 26.8948 54.523 28.0687C55.2333 29.2527 56.769 29.6366 57.953 28.9262L56.6667 26.7825C57.953 28.9262 57.9517 28.9269 57.953 28.9262L57.9573 28.9235L57.9623 28.9206L57.9727 28.9142L57.9977 28.8989L58.0617 28.8582C58.1107 28.8265 58.1717 28.7857 58.2437 28.7355C58.3867 28.6352 58.5733 28.4966 58.788 28.3176C59.2157 27.9611 59.7673 27.4352 60.315 26.7234C61.4243 25.281 62.5 23.0913 62.5 20.1158C62.5 17.1403 61.4243 14.9506 60.315 13.5082C59.7673 12.7964 59.2157 12.2705 58.788 11.914C58.5733 11.735 58.3867 11.5964 58.2437 11.4961C58.1717 11.4459 58.1107 11.4051 58.0617 11.3734L57.9977 11.3327L57.9727 11.3174L57.9623 11.311L57.9573 11.3081C57.9563 11.3074 57.953 11.3054 56.6667 13.4491L57.953 11.3054Z" fill="#1C274C"/>
</svg>
