<svg width="80" height="81" viewBox="0 0 80 81" fill="none" xmlns="http://www.w3.org/2000/svg">
<path d="M39.6194 8.07505C36.9806 8.08755 34.4619 8.31193 32.2444 8.70443C25.7131 9.85818 24.5281 12.2732 24.5281 16.7276V22.6094H39.9613V24.5701H18.7356C14.2506 24.5701 10.3231 27.2657 9.09438 32.3957C7.67688 38.2738 7.61438 41.9426 9.09438 48.0807C10.1913 52.6501 12.8113 55.9051 17.2969 55.9051H22.6038V48.8538C22.6038 43.7594 27.0106 39.2663 32.245 39.2663H47.6606C51.9519 39.2663 55.3769 35.7326 55.3769 31.4238V16.7282C55.3769 12.5451 51.8481 9.40318 47.6606 8.70505C45.0081 8.2638 42.2575 8.06318 39.6194 8.07505ZM31.2731 12.8057C32.8669 12.8057 34.1694 14.1288 34.1694 15.7563C34.1694 17.3769 32.8675 18.6876 31.2731 18.6876C29.6731 18.6876 28.3775 17.3769 28.3775 15.7563C28.3769 14.1288 29.6731 12.8057 31.2731 12.8057Z" fill="url(#paint0_linear_169_409)"/>
<path d="M57.3013 24.5701V31.4238C57.3013 36.7363 52.7963 41.2082 47.66 41.2082H32.2444C28.0219 41.2082 24.5281 44.8226 24.5281 49.0513V63.7482C24.5281 67.9301 28.1644 70.3907 32.2444 71.5901C37.1294 73.0257 41.8144 73.2857 47.66 71.5901C51.545 70.4644 55.3763 68.2007 55.3763 63.7482V57.8657H39.9613V55.9044H63.0938C67.5788 55.9044 69.2513 52.7763 70.8113 48.0801C72.4225 43.2457 72.3531 38.5963 70.8113 32.3951C69.7025 27.9294 67.5856 24.5694 63.0938 24.5694L57.3013 24.5701ZM48.6306 61.7869C50.2313 61.7869 51.5269 63.0976 51.5269 64.7194C51.5269 66.3457 50.2306 67.6688 48.6306 67.6688C47.0369 67.6688 45.735 66.3457 45.735 64.7194C45.735 63.0976 47.0369 61.7869 48.6306 61.7869Z" fill="url(#paint1_linear_169_409)"/>
<path opacity="0.444" d="M60.8181 75.1682C60.8181 77.3825 51.5581 79.1782 40.1362 79.1782C28.7137 79.1782 19.4537 77.3825 19.4537 75.1682C19.4537 72.9532 28.7131 71.1575 40.1362 71.1575C51.5581 71.1575 60.8181 72.9525 60.8181 75.1682Z" fill="url(#paint2_radial_169_409)"/>
<defs>
<linearGradient id="paint0_linear_169_409" x1="6.46055" y1="9.9142" x2="42.0567" y2="40.2704" gradientUnits="userSpaceOnUse">
<stop stop-color="#5A9FD4"/>
<stop offset="1" stop-color="#306998"/>
</linearGradient>
<linearGradient id="paint1_linear_169_409" x1="55.4493" y1="59.1403" x2="42.684" y2="41.2389" gradientUnits="userSpaceOnUse">
<stop stop-color="#FFD43B"/>
<stop offset="1" stop-color="#FFE873"/>
</linearGradient>
<radialGradient id="paint2_radial_169_409" cx="0" cy="0" r="1" gradientUnits="userSpaceOnUse" gradientTransform="translate(40.0526 75.0533) rotate(-90) scale(4.01145 17.6337)">
<stop stop-color="#B8B8B8" stop-opacity="0.498"/>
<stop offset="1" stop-color="#7F7F7F" stop-opacity="0"/>
</radialGradient>
</defs>
</svg>
