<svg width="113" height="37" viewBox="0 0 113 37" fill="none" xmlns="http://www.w3.org/2000/svg">
<path d="M3.07965 29.1158V8.58484H11.0867C12.8856 8.58484 14.4206 8.86837 15.6916 9.43541C16.9625 10.0025 17.9402 10.8237 18.6246 11.8991C19.3089 12.9746 19.6511 14.2553 19.6511 15.7414C19.6511 17.2274 19.3089 18.5082 18.6246 19.5836C17.9402 20.6395 16.9625 21.4607 15.6916 22.0473C14.4206 22.6144 12.8856 22.8979 11.0867 22.8979H4.6928L6.01265 21.5194V29.1158H3.07965ZM6.01265 21.8127L4.6928 20.3462H10.9988C12.8759 20.3462 14.2935 19.9453 15.2516 19.1436C16.2293 18.342 16.7181 17.2079 16.7181 15.7414C16.7181 14.2749 16.2293 13.1408 15.2516 12.3391C14.2935 11.5374 12.8759 11.1366 10.9988 11.1366H4.6928L6.01265 9.67005V21.8127ZM26.6291 17.4425H37.1879V19.9356H26.6291V17.4425ZM26.8931 26.5641H38.8597V29.1158H23.9601V8.58484H38.4491V11.1366H26.8931V26.5641ZM47.6858 29.1158V11.1366H40.6466V8.58484H57.6286V11.1366H50.5894V29.1158H47.6858ZM63.4921 17.4425H74.0509V19.9356H63.4921V17.4425ZM63.7561 26.5641H75.7227V29.1158H60.8231V8.58484H75.3121V11.1366H63.7561V26.5641ZM80.4719 29.1158V8.58484H88.479C90.2779 8.58484 91.8128 8.86837 93.0838 9.43541C94.3548 10.0025 95.3324 10.8237 96.0168 11.8991C96.7012 12.9746 97.0434 14.2553 97.0434 15.7414C97.0434 17.2274 96.7012 18.5082 96.0168 19.5836C95.3324 20.6395 94.3548 21.4509 93.0838 22.018C91.8128 22.585 90.2779 22.8686 88.479 22.8686H82.0851L83.4049 21.5194V29.1158H80.4719ZM94.1983 29.1158L88.9776 21.666H92.1159L97.3953 29.1158H94.1983ZM83.4049 21.8127L82.0851 20.3755H88.391C90.2681 20.3755 91.6857 19.9747 92.6439 19.173C93.6215 18.3517 94.1104 17.2079 94.1104 15.7414C94.1104 14.2749 93.6215 13.1408 92.6439 12.3391C91.6857 11.5374 90.2681 11.1366 88.391 11.1366H82.0851L83.4049 9.67005V21.8127Z" fill="white"/>
<circle cx="108" cy="31.1158" r="5" fill="#F0A500"/>
</svg>
